<?xml version="1.0" encoding="utf-8"?>
<!-- Generator: Adobe Illustrator 19.1.0, SVG Export Plug-In . SVG Version: 6.00 Build 0)  -->
<svg version="1.1" xmlns="http://www.w3.org/2000/svg" xmlns:xlink="http://www.w3.org/1999/xlink" x="0px" y="0px"
	 viewBox="-233.1 127.1 360 360" style="enable-background:new -233.1 127.1 360 360;" xml:space="preserve">
<style type="text/css">
	.st0{fill:#FAFAFA;}
	.st1{fill:#FFFFFF;}
	.st2{fill:#F93551;}
	.st3{fill:#FB36AF;}
	.st4{fill:#CF3AF4;}
	.st5{fill:#BB35F9;}
	.st6{fill:#8A3DFF;}
	.st7{fill:#5F49FF;}
	.st8{fill:#3C5FFF;}
	.st9{fill:#3CA7FF;}
	.st10{fill:#41CAFF;}
	.st11{fill:#4BFEEE;}
	.st12{fill:#4BFFCC;}
	.st13{fill:#51FD5F;}
	.st14{fill:#89FE20;}
	.st15{fill:#DFFE00;}
	.st16{fill:#FAFC00;}
	.st17{fill:#FEDE00;}
	.st18{fill:#FDAE19;}
	.st19{fill:#E86A15;}
	.st20{fill:none;}
	.st21{fill:none;stroke:#000000;stroke-width:0;stroke-linecap:round;stroke-linejoin:round;}
</style>
<g id="category14">
	<g>
		<path class="st0" d="M-54.5,135.6h0.5c20.1,0,39.8,3.5,58.4,10.3l0.5,0.2L-54.5,309V135.6z"/>
		<path class="st1" d="M-54,136.1c20.5,0,40,3.6,58.2,10.3L-54,306.2V136.1 M-54,135.1h-1v1v170v5.7l1.9-5.3L5.1,146.7l0.3-0.9
			l-0.9-0.3C-14.2,138.6-33.8,135.1-54,135.1L-54,135.1z"/>
	</g>
	<path class="st2" d="M-53.7,142.3c19.9,0,38.6,3.5,56,9.8l2.1-5.8c-18.1-6.6-37.2-10.2-58.1-10.2V142.3z"/>
	<path class="st2" d="M-53.7,242.2v7.7c0.2,0,0.4,0,0.6,0c6.5,0,12.8,1.1,18.6,3.1l2.6-7.2c-6.7-2.3-13.8-3.6-21.3-3.6
		C-53.3,242.2-53.5,242.2-53.7,242.2z"/>
	<g>
		<path d="M-39.3,231.4c0.6,0.1,0.9-0.4,1-0.9c0.1-0.4,0-0.9-0.5-1c-0.5-0.1-0.7,0.6-1,1.3c-0.3,0.7-0.7,1.3-1.5,1.2
			c-1-0.1-1.3-1.1-1.2-2c0.1-1,0.7-1.8,1.8-1.7l-0.1,1c-0.6,0-0.8,0.3-0.8,0.8c0,0.3,0,0.7,0.4,0.8c0.4,0.1,0.4-0.2,0.9-1.3
			c0.1-0.3,0.5-1.4,1.6-1.2c0.9,0.1,1.4,0.9,1.2,2.2c-0.2,1-0.8,1.9-2,1.8L-39.3,231.4z"/>
		<path d="M-40.5,226c0.2-1.1,1-1.7,2.1-1.5c1.1,0.2,1.7,1,1.5,2c-0.2,1.1-1,1.7-2,1.5C-40,227.8-40.6,227-40.5,226z M-37.6,226.4
			c0.1-0.6-0.4-0.9-1-1c-0.5-0.1-1.1,0-1.2,0.7c-0.1,0.6,0.4,0.9,1,1C-38.2,227.1-37.7,227-37.6,226.4z"/>
		<path d="M-39.4,223.5l-0.1,0.6l-0.6-0.1l0.1-0.6h-0.3c-0.6-0.1-1-0.5-0.9-1.3c0-0.2,0.1-0.3,0.1-0.5l0.7,0.1
			c0,0.1-0.1,0.2-0.1,0.3c0,0.2,0.1,0.4,0.3,0.4h0.2l0.1-0.6l0.6,0.1l-0.1,0.6l2.8,0.4l-0.1,0.9L-39.4,223.5z"/>
		<path d="M-39.5,220.2l0.1-0.7l0.6,0.1l-0.1,0.7l1.7,0.2c0.3,0,0.4,0,0.5-0.3c0-0.1,0-0.2,0-0.3l0.7,0.1c0,0.2,0,0.4,0,0.6
			c-0.1,0.6-0.3,1.1-1,1l-2-0.3l-0.1,0.6l-0.6-0.1l0.1-0.6l-1-0.1l0.1-0.9L-39.5,220.2z"/>
		<path d="M-35.4,215.7l-0.1,1l-2.4,0.3l0,0l2.2,0.9l-0.1,1l-3.6,0.6l0.1-1l2.4-0.3l0,0l-2.2-0.9l0.1-0.9l2.4-0.2l0,0l-2.2-1l0.1-1
			L-35.4,215.7z"/>
		<path d="M-37.5,213.9c-0.9-0.2-1-1-0.9-1.8c0.1-0.7,0.4-1.5,1.2-1.4l1.8,0.3c0.3,0,0.6,0.1,0.8,0l-0.1,0.9c-0.1,0-0.2,0-0.3,0
			c0.3,0.3,0.3,0.8,0.3,1.2c-0.1,0.6-0.5,1.1-1.2,1c-0.8-0.1-0.9-0.7-0.9-1.3c0-0.6,0.1-1.1-0.3-1.2c-0.4-0.1-0.5,0.2-0.5,0.5
			c-0.1,0.4,0.1,0.6,0.4,0.7L-37.5,213.9z M-36.5,211.8c0.1,0.2,0.1,0.5,0.1,0.8s0.1,0.6,0.4,0.6c0.3,0.1,0.5-0.2,0.5-0.5
			c0.1-0.7-0.5-0.8-0.7-0.9H-36.5z"/>
		<path d="M-38,209.9l0.1-0.9l0.6,0.1l0,0c-0.4-0.2-0.6-0.7-0.6-1.2c0-0.1,0-0.1,0.1-0.2l0.9,0.1c0,0.1-0.1,0.2-0.1,0.3
			c-0.1,0.7,0.4,1,1,1.1l1.5,0.2l-0.1,0.9L-38,209.9z"/>
		<path d="M-35.6,207c0.6,0.1,0.9-0.2,1-0.7c0.1-0.4-0.1-0.7-0.3-0.8l0.1-0.8c0.8,0.4,1,1,0.9,1.8c-0.2,1.1-1,1.6-2,1.5
			c-1-0.1-1.7-1-1.5-2c0.2-1.2,1.2-1.6,2.3-1.4L-35.6,207z M-36,205.4c-0.5,0-0.8,0.2-0.8,0.6c-0.1,0.6,0.4,0.8,0.6,0.9L-36,205.4z"
			/>
	</g>
</g>
<g id="category15">
	<g>
		<path class="st0" d="M4.8,145.8l0.5,0.2c18.5,6.6,35.8,16.6,51.4,29.6L57,176L-54.5,308.9L4.8,145.8z"/>
		<path class="st1" d="M5.1,146.5c18.9,6.8,36.1,16.9,51.2,29.6L-53.1,306.4L5.1,146.5 M4.5,145.2l-0.3,0.9L-54,306l-1.9,5.3
			l3.6-4.3L57.1,176.7l0.6-0.8l-0.8-0.6c-15.6-13.1-33-23.1-51.5-29.7L4.5,145.2L4.5,145.2z"/>
	</g>
	<path class="st3" d="M56.7,175.9c-15.1-12.6-32.3-22.6-51.1-29.5l-2.2,6c17.9,6.7,34.5,16.5,49,28.6L56.7,175.9z"/>
	<path class="st3" d="M-16.5,263.2l4.9-5.9c-5.6-4.7-12.1-8.5-19.1-11.1l-2.6,7.2C-27.1,255.7-21.5,259-16.5,263.2z"/>
	<g>
		<path d="M-20,239.6c0.6,0.3,1,0,1.3-0.5c0.2-0.3,0.3-0.9-0.1-1.1c-0.5-0.2-0.9,0.3-1.4,0.9c-0.5,0.5-1.1,1-1.9,0.6
			c-0.9-0.5-0.8-1.5-0.4-2.2c0.5-0.9,1.3-1.5,2.2-1l-0.5,0.9c-0.5-0.2-0.8,0-1.1,0.5c-0.2,0.3-0.2,0.7,0.1,0.9
			c0.3,0.2,0.5,0,1.3-0.9c0.2-0.3,0.9-1.1,1.9-0.6c0.8,0.4,1,1.3,0.4,2.5c-0.5,0.9-1.4,1.5-2.4,1L-20,239.6z"/>
		<path d="M-19.4,234.5l0.3-0.6l0.6,0.3l-0.3,0.6l1.5,0.8c0.3,0.2,0.4,0.1,0.5-0.2c0-0.1,0.1-0.2,0.1-0.3l0.7,0.3
			c-0.1,0.2-0.1,0.3-0.2,0.5c-0.3,0.5-0.6,0.9-1.2,0.6l-1.8-1l-0.3,0.5l-0.6-0.3l0.3-0.5l-0.9-0.5l0.4-0.8L-19.4,234.5z"/>
		<path d="M-18.2,232c0.5-1,1.5-1.2,2.4-0.7c1,0.5,1.3,1.5,0.8,2.4s-1.5,1.2-2.4,0.7C-18.4,233.9-18.7,233-18.2,232z M-15.6,233.4
			c0.3-0.6-0.1-1-0.6-1.3s-1.1-0.4-1.4,0.2c-0.3,0.6,0.1,1,0.6,1.3S-15.9,234-15.6,233.4z"/>
		<path d="M-16.9,229.9l0.4-0.8l0.6,0.3l0,0c-0.3-0.4-0.3-0.9-0.1-1.3c0-0.1,0.1-0.1,0.1-0.2l0.8,0.4c-0.1,0.1-0.1,0.2-0.2,0.3
			c-0.3,0.6,0,1.1,0.5,1.3l1.4,0.7l-0.4,0.8L-16.9,229.9z"/>
		<path d="M-14.8,228.2c-0.8-0.5-0.6-1.3-0.2-2c0.3-0.6,0.8-1.3,1.6-0.9l1.6,0.8c0.3,0.1,0.6,0.3,0.7,0.3l-0.5,0.8
			c-0.1,0-0.2-0.1-0.3-0.1c0.1,0.4,0,0.9-0.2,1.2c-0.3,0.6-0.8,0.9-1.5,0.5c-0.7-0.4-0.6-1-0.4-1.5c0.2-0.6,0.5-1,0.1-1.2
			c-0.4-0.2-0.5,0-0.7,0.3c-0.2,0.3-0.2,0.6,0.2,0.8L-14.8,228.2z M-13.1,226.6c0,0.2-0.1,0.5-0.2,0.8c-0.1,0.3-0.1,0.6,0.2,0.7
			c0.3,0.2,0.5,0,0.7-0.3c0.3-0.7-0.2-1-0.3-1L-13.1,226.6z"/>
		<path d="M-9.5,222.9c0.5,0.3,1.2,0.9,0.5,2.3c-0.3,0.6-1,1.1-1.7,0.8l0.4-0.8c0.4,0.1,0.6-0.1,0.8-0.4c0.2-0.5,0-0.8-0.4-1.1
			l-0.4-0.2l0,0c0.2,0.4,0.2,0.8,0,1.2c-0.5,0.9-1.4,0.9-2.2,0.5s-1.3-1.3-0.8-2.1c0.2-0.4,0.5-0.6,1-0.6l0,0l-0.4-0.2l0.4-0.8
			L-9.5,222.9z M-11.3,223c-0.5-0.3-1-0.3-1.3,0.2s0,0.9,0.5,1.1c0.4,0.2,1,0.3,1.3-0.2C-10.6,223.6-10.8,223.2-11.3,223z"/>
		<path d="M-9.9,220.9c0.5,0.3,0.9,0.1,1.2-0.3c0.2-0.3,0.1-0.7,0-0.9l0.4-0.7c0.6,0.6,0.6,1.3,0.3,2c-0.5,1-1.5,1.2-2.4,0.7
			s-1.3-1.5-0.8-2.4c0.6-1,1.7-1.1,2.6-0.5L-9.9,220.9z M-9.7,219.3c-0.5-0.2-0.8-0.1-1,0.3c-0.3,0.5,0,0.9,0.3,1L-9.7,219.3z"/>
		<path d="M-5.4,214.7c0.1,0.5,0.1,1-0.1,1.4c-0.4,0.8-1.2,1.1-2,0.7c-0.6-0.3-0.7-1-0.7-1.6c-0.4,0.1-0.7,0.1-1.1-0.1
			c-0.6-0.3-0.7-1-0.4-1.6c0.3-0.6,1-1,1.6-0.6c0.5,0.3,0.6,0.8,0.6,1.3l1-0.2c-0.1-0.2-0.3-0.3-0.4-0.4l0.4-0.7
			c0.4,0.2,0.6,0.6,0.8,1l1.4-0.3l-0.5,1L-5.4,214.7z M-9.1,213.8c-0.1,0.2,0,0.5,0.2,0.6c0.3,0.1,0.5,0.1,0.8,0
			c0-0.3-0.1-0.6-0.4-0.7C-8.7,213.5-9,213.6-9.1,213.8z M-7.4,215.1c0,0.4,0,0.8,0.4,1c0.3,0.2,0.7,0,0.9-0.3s0.1-0.6,0-0.9
			L-7.4,215.1z"/>
		<path d="M-16.1,242.5l1-1.8c0.6-1.1,1.7-1.5,3.1-0.8c1.2,0.7,1.8,1.8,1.1,3l-1,1.8L-16.1,242.5z M-12.2,243.4l0.4-0.8
			c0.3-0.5,0.2-1.2-0.7-1.7c-0.8-0.5-1.5-0.5-2,0.5l-0.4,0.7L-12.2,243.4z"/>
		<path d="M-12.7,237.7l-0.4,0.8l-0.7-0.4l0.4-0.8L-12.7,237.7z M-12.6,238.8l0.4-0.8l3,1.6l-0.4,0.8L-12.6,238.8z"/>
		<path d="M-9.4,237.8c0.4,0.2,0.7,0,0.9-0.4c0.1-0.2,0.2-0.6-0.1-0.8c-0.3-0.1-0.5,0.2-1,0.7c-0.4,0.4-0.8,0.8-1.3,0.5
			c-0.8-0.4-0.6-1.2-0.3-1.8c0.4-0.7,0.9-1.2,1.7-0.8l-0.4,0.8c-0.3-0.2-0.6,0-0.7,0.3c-0.1,0.2-0.2,0.5,0,0.6
			c0.3,0.2,0.6-0.3,1-0.7c0.4-0.4,0.8-0.8,1.4-0.5c0.8,0.4,0.7,1.3,0.3,2s-1,1.2-1.8,0.9L-9.4,237.8z"/>
		<path d="M-9.6,233.1l0.3-0.6l0.6,0.3l-0.3,0.6l1.5,0.8c0.3,0.2,0.4,0.1,0.5-0.2c0-0.1,0.1-0.2,0.1-0.3l0.7,0.3
			c-0.1,0.2-0.1,0.3-0.2,0.5c-0.3,0.5-0.6,0.9-1.2,0.6l-1.8-1l-0.3,0.5l-0.6-0.3l0.3-0.5l-0.9-0.5l0.4-0.8L-9.6,233.1z"/>
		<path d="M-9,232.1l0.4-0.8l0.6,0.3l0,0c-0.3-0.4-0.3-0.9-0.1-1.3c0-0.1,0.1-0.1,0.1-0.2l0.8,0.4c-0.1,0.1-0.1,0.2-0.2,0.3
			c-0.3,0.6,0,1.1,0.5,1.3l1.4,0.7l-0.4,0.8L-9,232.1z"/>
		<path d="M-7.8,228.7l-0.4,0.8l-0.7-0.4l0.4-0.8L-7.8,228.7z M-7.8,229.8l0.4-0.8l3,1.6l-0.4,0.8L-7.8,229.8z"/>
		<path d="M-8.1,227.7l0.4-0.8l1.5,0.8l0,0c-0.2-0.4-0.1-0.8,0.1-1.2c0.3-0.6,1.2-1,2.3-0.4s1.2,1.5,0.9,2.1c-0.2,0.4-0.6,0.7-1,0.7
			l0,0l0.4,0.2l-0.4,0.8L-8.1,227.7z M-5.6,227.1c-0.3,0.5,0.1,1,0.6,1.2c0.5,0.3,1.1,0.3,1.3-0.2s-0.1-1-0.6-1.2
			C-4.8,226.6-5.4,226.6-5.6,227.1z"/>
		<path d="M-0.5,223.5l-0.4,0.8l-0.4-0.2l0,0c0.2,0.4,0.2,0.8,0,1.2c-0.5,0.9-1.1,0.8-1.8,0.4l-1.9-1l0.4-0.8l1.7,0.9
			c0.5,0.3,0.8,0.3,1-0.1c0.2-0.5,0.1-0.8-0.5-1.1l-1.6-0.9l0.4-0.8L-0.5,223.5z"/>
		<path d="M-2.6,220.2l0.3-0.6l0.6,0.3l-0.3,0.6l1.5,0.8c0.3,0.2,0.4,0.1,0.5-0.2c0-0.1,0.1-0.2,0.1-0.3l0.7,0.3
			c-0.1,0.2-0.1,0.3-0.2,0.5c-0.3,0.5-0.6,0.9-1.2,0.6l-1.8-1l-0.3,0.5l-0.6-0.3l0.3-0.5l-0.9-0.5l0.4-0.8L-2.6,220.2z"/>
		<path d="M-2.1,218.1l-0.4,0.8l-0.7-0.4l0.4-0.8L-2.1,218.1z M-2.1,219.2l0.4-0.8l3,1.6l-0.4,0.8L-2.1,219.2z"/>
		<path d="M-0.6,216.2c0.5-1,1.5-1.2,2.4-0.7c1,0.5,1.3,1.5,0.7,2.4c-0.5,0.9-1.5,1.2-2.4,0.7S-1.1,217.1-0.6,216.2z M2,217.5
			c0.3-0.6-0.1-1-0.6-1.3c-0.5-0.3-1.1-0.4-1.4,0.2c-0.3,0.6,0.1,1,0.6,1.3C1.1,218,1.7,218.1,2,217.5z"/>
		<path d="M0.7,214.1l0.4-0.8l0.4,0.2l0,0c-0.2-0.4-0.2-0.8,0-1.2c0.5-0.9,1.1-0.8,1.8-0.4l1.9,1l-0.4,0.8l-1.7-0.9
			c-0.5-0.3-0.8-0.3-1,0.1c-0.2,0.5-0.1,0.8,0.5,1.1l1.6,0.9l-0.4,0.8L0.7,214.1z"/>
	</g>
</g>
<g id="category16">
	<g>
		<path class="st0" d="M56.3,175.4l0.4,0.3c15.4,13,28.2,28.2,38.1,45.4l0.2,0.4l-150.2,86.7L56.3,175.4z"/>
		<path class="st1" d="M56.4,176.1c15.1,12.7,28,28,38,45.3l-147.3,85.1L56.4,176.1 M56.3,174.7l-0.6,0.8L-53.7,305.8l-3.6,4.3
			l4.9-2.8l147.3-85.1l0.9-0.5l-0.5-0.9c-9.9-17.2-22.8-32.5-38.2-45.5L56.3,174.7L56.3,174.7z"/>
	</g>
	<path class="st4" d="M89.1,224.7l5.8-3.4c-10-17.1-22.8-32.5-37.9-45.2l-4.3,5.1C67.3,193.6,79.5,208.3,89.1,224.7z"/>
	<path class="st4" d="M-3.7,278.3l6.7-3.8c-3.7-6.4-8.5-12.1-14.2-16.9l-4.9,5.9C-11.3,267.6-7,272.7-3.7,278.3z"/>
	<g>
		<path d="M4,255.2c0.4,0.5,0.9,0.4,1.4,0c0.3-0.2,0.6-0.7,0.3-1c-0.3-0.4-0.9,0-1.6,0.3c-0.7,0.3-1.4,0.6-2-0.1s-0.2-1.7,0.4-2.2
			c0.8-0.6,1.7-0.9,2.4-0.1l-0.8,0.7c-0.4-0.4-0.8-0.3-1.2,0.1c-0.3,0.2-0.5,0.6-0.2,0.9c0.2,0.3,0.4,0.2,1.5-0.4
			c0.3-0.2,1.3-0.7,2,0.1c0.6,0.7,0.5,1.6-0.5,2.4c-0.8,0.7-1.9,0.9-2.6,0L4,255.2z"/>
		<path d="M10.1,252l-0.7,0.6l-0.3-0.4l0,0c0.1,0.5-0.1,0.9-0.4,1.1c-0.8,0.6-1.3,0.4-1.9-0.3l-1.4-1.6l0.7-0.6l1.3,1.5
			c0.4,0.4,0.7,0.5,1,0.3c0.4-0.3,0.4-0.7-0.1-1.2L7.1,250l0.7-0.6L10.1,252z"/>
		<path d="M8.5,248.9l0.7-0.6l0.3,0.3l0,0c-0.1-0.4,0.1-0.8,0.4-1.1c0.8-0.7,1.8-0.3,2.4,0.4c0.6,0.7,0.8,1.7,0,2.3
			c-0.3,0.3-0.7,0.4-1.1,0.3l0,0l1.1,1.2l-0.7,0.6L8.5,248.9z M11.5,248.6c-0.4-0.4-0.9-0.7-1.3-0.3c-0.5,0.4-0.3,1,0.1,1.4
			c0.4,0.4,0.9,0.7,1.3,0.3C12.1,249.6,11.9,249,11.5,248.6z"/>
		<path d="M11.6,246.3l0.7-0.6l0.3,0.3l0,0c-0.1-0.4,0.1-0.8,0.4-1.1c0.8-0.7,1.8-0.3,2.4,0.4c0.6,0.7,0.8,1.7,0,2.3
			c-0.3,0.3-0.7,0.4-1.1,0.3l0,0l1.1,1.2l-0.7,0.6L11.6,246.3z M14.6,246c-0.4-0.4-0.9-0.7-1.3-0.3c-0.5,0.4-0.3,1,0.1,1.4
			c0.4,0.4,0.9,0.7,1.3,0.3C15.2,246.9,15,246.4,14.6,246z"/>
		<path d="M13.9,242.6l0.7-0.6l3.1,3.6l-0.7,0.6L13.9,242.6z"/>
		<path d="M19.8,244.4c0.2,0.6,0.1,0.9-0.4,1.4c-0.1,0.1-0.3,0.2-0.5,0.3l-0.5-0.6c0.1-0.1,0.3-0.2,0.4-0.3c0.2-0.2,0.1-0.6-0.2-0.7
			l-3-1.7l0.8-0.7l2.1,1.3l0,0l-0.9-2.3l0.7-0.6L19.8,244.4z"/>
		<path d="M22.7,237.2c-0.4-0.3-0.9-0.3-1.3,0c-0.7,0.6-0.5,1.4,0.1,2.1c0.5,0.6,1.3,1,2,0.4c0.5-0.4,0.5-1,0.1-1.5l0.8-0.7
			c0.7,1,0.5,2.1-0.3,2.8c-1.1,1-2.5,0.7-3.4-0.4s-1-2.5,0.2-3.4c0.8-0.7,1.9-0.8,2.7,0L22.7,237.2z"/>
		<path d="M23,234.9l0.7-0.6l1.2,1.4l0,0c-0.1-0.4,0.1-0.9,0.4-1.1c0.8-0.6,1.3-0.4,1.9,0.3l1.4,1.6l-0.7,0.6l-1.3-1.5
			c-0.4-0.4-0.7-0.5-1-0.3c-0.4,0.3-0.4,0.7,0.1,1.2l1.2,1.4l-0.7,0.6L23,234.9z"/>
		<path d="M27.5,234.2c-0.5-0.7-0.1-1.4,0.5-1.9c0.5-0.4,1.3-0.9,1.8-0.2l1.2,1.4c0.2,0.2,0.4,0.5,0.6,0.5l-0.7,0.6
			c-0.1-0.1-0.2-0.1-0.3-0.2c0,0.4-0.3,0.8-0.6,1.1c-0.5,0.4-1.1,0.5-1.6,0c-0.5-0.6-0.2-1.1,0.2-1.6c0.4-0.4,0.8-0.8,0.6-1.1
			c-0.3-0.3-0.5-0.2-0.8,0c-0.3,0.2-0.4,0.5-0.1,0.8L27.5,234.2z M29.6,233.3c0,0.2-0.3,0.4-0.5,0.7c-0.2,0.2-0.3,0.5-0.1,0.7
			c0.2,0.3,0.5,0.2,0.7,0c0.6-0.5,0.2-0.9,0.1-1.1L29.6,233.3z"/>
		<path d="M30.1,229.9l-0.7,0.6l-0.5-0.6l0.7-0.6L30.1,229.9z M29.8,230.9l0.7-0.6l2.2,2.6l-0.7,0.6L29.8,230.9z"/>
		<path d="M31,229.8l0.7-0.6l0.3,0.4l0,0c-0.1-0.4,0.1-0.9,0.4-1.1c0.8-0.6,1.3-0.4,1.9,0.3l1.4,1.6L35,231l-1.3-1.5
			c-0.4-0.4-0.7-0.5-1-0.3c-0.4,0.3-0.4,0.7,0.1,1.2l1.2,1.4l-0.7,0.6L31,229.8z"/>
		<path d="M6.6,259.3l1.1-1l3,1.8l0,0l-1.3-3.2l1.1-1l3.1,3.6l-0.7,0.6l-2.2-2.6l0,0l1.3,3.3l-0.6,0.5l-3-1.8l0,0l2.2,2.5l-0.7,0.6
			L6.6,259.3z"/>
		<path d="M12.6,257.3c-0.5-0.7-0.1-1.4,0.5-1.9c0.5-0.4,1.3-0.9,1.8-0.2l1.2,1.4c0.2,0.2,0.4,0.5,0.6,0.5l-0.7,0.6
			c-0.1-0.1-0.2-0.1-0.3-0.2c0,0.4-0.3,0.8-0.6,1.1c-0.5,0.4-1.1,0.5-1.6,0c-0.5-0.6-0.2-1.1,0.2-1.6c0.4-0.4,0.8-0.8,0.6-1.1
			c-0.3-0.3-0.5-0.2-0.8,0s-0.4,0.5-0.1,0.8L12.6,257.3z M14.7,256.4c0,0.2-0.3,0.4-0.5,0.7c-0.2,0.2-0.3,0.5-0.1,0.7
			c0.2,0.3,0.5,0.2,0.7,0c0.6-0.5,0.2-0.9,0.1-1.1L14.7,256.4z"/>
		<path d="M14.8,254l0.7-0.6l0.3,0.4l0,0c-0.1-0.4,0.1-0.9,0.4-1.1c0.8-0.6,1.3-0.4,1.9,0.3l1.4,1.6l-0.7,0.6l-1.3-1.5
			c-0.4-0.4-0.7-0.5-1-0.3c-0.4,0.3-0.4,0.7,0.1,1.2l1.2,1.4l-0.7,0.6L14.8,254z"/>
		<path d="M18.5,252.3c-0.5-0.7-0.1-1.4,0.5-1.9c0.5-0.4,1.3-0.9,1.8-0.2l1.2,1.4c0.2,0.2,0.4,0.5,0.6,0.5l-0.7,0.6
			c-0.1-0.1-0.2-0.1-0.3-0.2c0,0.4-0.3,0.8-0.6,1.1c-0.5,0.4-1.1,0.5-1.6,0c-0.5-0.6-0.2-1.1,0.2-1.6c0.4-0.4,0.8-0.8,0.6-1.1
			c-0.3-0.3-0.5-0.2-0.8,0s-0.4,0.5-0.1,0.8L18.5,252.3z M20.6,251.4c0,0.2-0.3,0.4-0.5,0.7c-0.2,0.2-0.3,0.5-0.1,0.7
			c0.2,0.3,0.5,0.2,0.7,0c0.6-0.5,0.2-0.9,0.1-1.1L20.6,251.4z"/>
		<path d="M25.4,249.3c0.4,0.4,0.8,1.3-0.4,2.3c-0.5,0.4-1.3,0.7-1.9,0.1l0.7-0.6c0.3,0.2,0.6,0.1,0.8-0.1c0.4-0.3,0.4-0.8,0-1.1
			l-0.3-0.3l0,0c0.1,0.4-0.1,0.8-0.4,1.1c-0.8,0.7-1.6,0.4-2.2-0.4c-0.6-0.7-0.7-1.6,0-2.3c0.3-0.3,0.7-0.4,1.1-0.2l0,0l-0.3-0.4
			l0.7-0.6L25.4,249.3z M23.7,248.7c-0.4-0.4-0.8-0.7-1.3-0.3c-0.4,0.3-0.3,0.8,0,1.2s0.8,0.7,1.3,0.3
			C24.1,249.6,24,249.1,23.7,248.7z"/>
		<path d="M25.7,247.3c0.4,0.4,0.8,0.5,1.2,0.1c0.3-0.2,0.4-0.6,0.3-0.8l0.6-0.5c0.3,0.8,0.1,1.4-0.5,1.9c-0.8,0.7-1.8,0.6-2.5-0.2
			s-0.6-1.8,0.2-2.5c0.9-0.8,2-0.4,2.6,0.5L25.7,247.3z M26.5,245.9c-0.4-0.3-0.7-0.4-1-0.1c-0.5,0.4-0.3,0.9-0.1,1.1L26.5,245.9z"
			/>
		<path d="M26.8,243.9l0.7-0.6l0.3,0.4l0,0c0-0.4,0.1-0.8,0.4-1.1c0.3-0.3,0.7-0.4,1.1-0.2c0-0.4,0.1-0.8,0.4-1.1
			c0.6-0.5,1.2-0.6,1.8,0.1l1.5,1.8l-0.7,0.6l-1.3-1.5c-0.3-0.4-0.6-0.6-1-0.3s-0.2,0.7,0.1,1.1l1.2,1.5l-0.7,0.6l-1.2-1.5
			c-0.3-0.3-0.5-0.7-1-0.3c-0.1,0.1-0.4,0.5,0,1l1.3,1.5l-0.7,0.6L26.8,243.9z"/>
		<path d="M33.3,241c0.4,0.4,0.8,0.5,1.2,0.1c0.3-0.2,0.4-0.6,0.3-0.8l0.6-0.5c0.3,0.8,0.1,1.4-0.5,1.9c-0.8,0.7-1.8,0.6-2.5-0.2
			c-0.7-0.8-0.6-1.8,0.2-2.5c0.9-0.8,2-0.4,2.6,0.5L33.3,241z M34,239.5c-0.4-0.3-0.7-0.4-1-0.1c-0.5,0.4-0.3,0.9-0.1,1.1L34,239.5z
			"/>
		<path d="M34.3,237.5l0.7-0.6l0.3,0.4l0,0c-0.1-0.5,0.1-0.9,0.4-1.1c0.8-0.6,1.3-0.4,1.9,0.3l1.4,1.6l-0.7,0.6l-1.3-1.5
			c-0.4-0.4-0.7-0.5-1-0.3c-0.4,0.3-0.4,0.7,0.1,1.2l1.2,1.4l-0.7,0.6L34.3,237.5z"/>
		<path d="M38.3,234.2l0.5-0.4l0.4,0.5l-0.5,0.4l1.1,1.3c0.2,0.2,0.3,0.3,0.6,0c0.1-0.1,0.1-0.1,0.2-0.2l0.5,0.6
			c-0.1,0.1-0.3,0.3-0.4,0.4c-0.4,0.4-0.9,0.6-1.4,0.1l-1.3-1.5l-0.4,0.4l-0.4-0.5l0.4-0.4l-0.7-0.8l0.7-0.6L38.3,234.2z"/>
	</g>
</g>
<g id="category17">
	<g>
		<path class="st0" d="M94.7,220.9l0.2,0.4c10,17.3,16.8,36,20.3,55.7l0.1,0.5l-170.8,30.1L94.7,220.9z"/>
		<path class="st1" d="M94.5,221.6c9.7,16.8,16.7,35.6,20.2,55.5l-167.5,29.6L94.5,221.6 M94.8,220.2l-0.9,0.5l-147.3,85.1l-4.9,2.8
			l5.6-1l167.5-29.6l1-0.2l-0.2-1c-3.5-19.7-10.3-38.5-20.3-55.8L94.8,220.2L94.8,220.2z"/>
	</g>
	<path class="st5" d="M115.3,277.1c-3.5-19.8-10.5-38.5-20.1-55.4l-5.8,3.4c9.3,16.2,15.8,34.2,19.2,53.2L115.3,277.1z"/>
	<path class="st5" d="M3.1,296.9l7.6-1.3c-1.3-7.4-3.9-14.4-7.5-20.7l-6.7,3.8C-0.3,284.3,1.9,290.4,3.1,296.9z"/>
	<g>
		<path d="M15.2,278.7l2.1-0.7c0.9-0.3,1.5-0.2,1.9,0.7c0.2,0.5,0.1,0.8-0.3,1.2c0.6,0,1,0.3,1.2,0.9c0.3,1-0.3,1.6-1.2,1.9
			l-2.2,0.7L15.2,278.7z M16.8,280.2l1-0.3c0.4-0.1,0.5-0.4,0.5-0.7c-0.2-0.4-0.5-0.4-0.9-0.2l-1,0.3L16.8,280.2z M17.5,282.1l1-0.4
			c0.4-0.2,0.7-0.3,0.6-0.8c-0.2-0.5-0.5-0.5-0.9-0.4l-1,0.4L17.5,282.1z"/>
		<path d="M20.8,277.7l-0.9,0.3l-0.2-0.8l0.9-0.3L20.8,277.7z M20.1,278.4l0.9-0.3l1.1,3.2l-0.9,0.3L20.1,278.4z"/>
		<path d="M25.8,279.9c0.2,0.6,0.3,1.5-1.2,2.1c-0.7,0.2-1.5,0.2-1.8-0.6l0.9-0.3c0.2,0.3,0.5,0.3,0.9,0.2c0.5-0.2,0.6-0.6,0.4-1
			l-0.2-0.4l0,0c-0.1,0.4-0.4,0.7-0.8,0.9c-1,0.3-1.7-0.3-1.9-1.2c-0.3-0.9,0-1.8,0.8-2.1c0.4-0.2,0.8-0.1,1.2,0.2l0,0l-0.2-0.5
			l0.9-0.3L25.8,279.9z M24.5,278.7c-0.2-0.6-0.5-0.9-1.1-0.7c-0.5,0.2-0.6,0.7-0.4,1.2c0.2,0.5,0.5,0.9,1.1,0.7
			C24.6,279.7,24.7,279.2,24.5,278.7z"/>
		<path d="M27,274.8l1.9-0.7c1.1-0.4,2.3,0.1,2.8,1.5c0.5,1.3,0.1,2.5-1.3,3l-1.9,0.7L27,274.8z M29.2,278.1l0.9-0.3
			c0.6-0.2,1-0.7,0.7-1.8c-0.3-0.9-0.8-1.4-1.8-1.1l-0.7,0.2L29.2,278.1z"/>
		<path d="M32.2,275.5c-0.3-0.9,0.4-1.4,1.1-1.6c0.7-0.2,1.5-0.4,1.7,0.5l0.5,1.7c0.1,0.3,0.2,0.6,0.3,0.7l-0.9,0.3
			c0-0.1-0.1-0.2-0.2-0.3c-0.2,0.4-0.6,0.6-1,0.8c-0.6,0.2-1.2,0-1.4-0.6c-0.2-0.8,0.2-1.1,0.8-1.4c0.6-0.3,1-0.4,0.9-0.8
			c-0.2-0.4-0.4-0.3-0.8-0.3c-0.4,0.1-0.6,0.3-0.4,0.7L32.2,275.5z M34.6,275.5c-0.1,0.2-0.5,0.3-0.7,0.4c-0.3,0.2-0.5,0.3-0.4,0.7
			c0.1,0.3,0.4,0.3,0.7,0.3c0.7-0.2,0.6-0.8,0.4-1L34.6,275.5z"/>
		<path d="M36.7,272.8l0.7-0.2l0.2,0.6l-0.7,0.2l0.5,1.6c0.1,0.3,0.2,0.4,0.5,0.2c0.1,0,0.2,0,0.3-0.2l0.2,0.7
			c-0.2,0-0.4,0.2-0.5,0.2c-0.6,0.2-1.1,0.2-1.3-0.5l-0.7-1.9l-0.6,0.2l-0.2-0.6l0.6-0.2l-0.3-1l0.9-0.3L36.7,272.8z"/>
		<path d="M38.1,273.5c-0.3-0.9,0.4-1.4,1.1-1.6c0.7-0.2,1.5-0.4,1.7,0.5l0.5,1.7c0.1,0.3,0.2,0.6,0.3,0.7l-0.9,0.3
			c0-0.1-0.1-0.2-0.2-0.3c-0.2,0.4-0.6,0.6-1,0.8c-0.6,0.2-1.2,0-1.4-0.6c-0.2-0.8,0.2-1.1,0.8-1.4c0.6-0.3,1-0.4,0.9-0.8
			c-0.2-0.4-0.4-0.3-0.8-0.3c-0.4,0.1-0.6,0.3-0.4,0.7L38.1,273.5z M40.4,273.5c-0.1,0.2-0.5,0.3-0.7,0.4c-0.3,0.2-0.5,0.3-0.4,0.7
			c0.1,0.3,0.4,0.3,0.7,0.3c0.7-0.2,0.6-0.8,0.4-1L40.4,273.5z"/>
	</g>
</g>
<g id="category18">
	<g>
		<path class="st0" d="M-55.6,306.8l170.8-30.1l0.1,0.5c1.7,10,2.6,20,2.6,29.6c0,9.7-0.9,19.7-2.6,29.6l-0.1,0.5L-55.6,306.8z"/>
		<path class="st1" d="M114.8,277.2c1.6,9.6,2.6,19.5,2.6,29.6c0,10.1-0.9,20-2.6,29.6l-167.5-29.6L114.8,277.2 M115.6,276.1l-1,0.2
			l-167.5,29.6l-5.6,1l5.6,1l167.5,29.6l1,0.2l0.2-1c1.7-10,2.6-20,2.6-29.7c0-9.7-0.9-19.7-2.6-29.7L115.6,276.1L115.6,276.1z"/>
	</g>
	<path class="st6" d="M117.9,307.1c0-10.2-0.9-20-2.6-29.5l-6.7,1.2c1.6,9.2,2.4,18.7,2.4,28.4c0,9.6-0.8,19-2.4,28.2l6.7,1.2
		C117,326.9,117.9,317.1,117.9,307.1z"/>
	<path class="st6" d="M10.7,296l-7.6,1.3c0.5,3.1,0.8,6.4,0.8,9.7s-0.3,6.5-0.8,9.7l7.6,1.3c0.6-3.6,1-7.3,1-11S11.4,299.6,10.7,296
		z"/>
	<g>
		<path d="M18.9,300.5l2.2,0.1c0.9,0.1,1.5,0.4,1.4,1.2c0,0.5-0.3,0.8-0.7,1c0.6,0.2,0.9,0.7,0.8,1.3c-0.1,1-0.9,1.3-1.7,1.3
			l-2.3-0.1L18.9,300.5z M19.8,302.5l1.1,0.1c0.4,0,0.6-0.2,0.6-0.6c0-0.5-0.4-0.5-0.7-0.5l-1-0.1L19.8,302.5z M19.7,304.5l1.1,0.1
			c0.4,0,0.8-0.1,0.8-0.5c0-0.5-0.2-0.7-0.7-0.8l-1.1-0.1L19.7,304.5z"/>
		<path d="M26.5,305.6l-0.9-0.1l0-0.5l0,0c-0.2,0.4-0.6,0.6-1,0.5c-1-0.1-1.3-0.6-1.2-1.5l0.1-2.1l0.9,0.1l-0.1,1.9
			c0,0.6,0.1,0.8,0.5,0.8c0.5,0,0.7-0.2,0.8-0.9l0.1-1.8l0.9,0.1L26.5,305.6z"/>
		<path d="M28,304.6c0,0.4,0.4,0.6,0.7,0.6c0.3,0,0.6-0.1,0.6-0.5c0-0.3-0.4-0.4-1.1-0.6c-0.5-0.1-1.1-0.4-1-1c0.1-0.9,0.8-1,1.6-1
			c0.8,0.1,1.4,0.3,1.4,1.2l-0.9-0.1c0-0.4-0.3-0.5-0.7-0.5c-0.2,0-0.5,0.1-0.5,0.3c0,0.3,0.5,0.4,1.1,0.6s1.1,0.4,1,1
			c-0.1,0.9-0.9,1.1-1.6,1.1c-0.8-0.1-1.6-0.4-1.5-1.3L28,304.6z"/>
		<path d="M32,301.9l-0.9-0.1l0.1-0.8l0.9,0.1L32,301.9z M30.9,302.4l0.9,0.1l-0.1,3.4l-0.9-0.1L30.9,302.4z"/>
		<path d="M32.6,302.5l0.9,0.1l0,0.5l0,0c0.2-0.4,0.6-0.6,1-0.5c1,0.1,1.3,0.6,1.2,1.5l-0.1,2.1l-0.9-0.1l0.1-1.9
			c0-0.6-0.1-0.8-0.5-0.8c-0.5,0-0.7,0.2-0.8,0.9l-0.1,1.8l-0.9-0.1L32.6,302.5z"/>
		<path d="M37.3,304.6c0,0.6,0.2,0.9,0.8,1c0.4,0,0.7-0.1,0.7-0.4l0.8,0.1c-0.3,0.8-0.9,1.1-1.7,1.1c-1.1-0.1-1.7-0.8-1.7-1.9
			c0.1-1,0.8-1.7,1.8-1.8c1.2,0.1,1.7,1,1.6,2.1L37.3,304.6z M38.8,304.2c-0.1-0.5-0.2-0.7-0.7-0.8c-0.6,0-0.8,0.4-0.9,0.7
			L38.8,304.2z"/>
		<path d="M41,305.2c0,0.4,0.4,0.6,0.7,0.6c0.3,0,0.6-0.1,0.6-0.5c0-0.3-0.4-0.4-1.1-0.6c-0.5-0.1-1.1-0.4-1-1c0.1-0.9,0.8-1,1.6-1
			s1.4,0.3,1.4,1.2l-0.9-0.1c0-0.4-0.3-0.5-0.7-0.5c-0.2,0-0.5,0.1-0.5,0.3c0,0.3,0.5,0.4,1.1,0.6c0.6,0.1,1.1,0.4,1,1
			c-0.1,0.9-0.9,1.1-1.6,1.1c-0.8-0.1-1.6-0.4-1.5-1.3L41,305.2z"/>
		<path d="M44.5,305.4c0,0.4,0.4,0.6,0.7,0.6c0.3,0,0.6-0.1,0.6-0.5c0-0.3-0.4-0.4-1.1-0.6c-0.5-0.1-1.1-0.4-1-1
			c0.1-0.9,0.8-1,1.6-1s1.4,0.3,1.4,1.2l-0.9-0.1c0-0.4-0.3-0.5-0.7-0.5c-0.2,0-0.5,0.1-0.5,0.3c0,0.3,0.5,0.4,1.1,0.6
			c0.6,0.1,1.1,0.4,1,1c-0.1,0.9-0.9,1.1-1.6,1.1c-0.8-0.1-1.6-0.4-1.5-1.3L44.5,305.4z"/>
		<path d="M18.4,308.5l1,0.1l-0.2,4.7l-1-0.1L18.4,308.5z"/>
		<path d="M20.3,309.8l0.9,0.1l0,0.5l0,0c0.2-0.4,0.6-0.6,1-0.5c1,0.1,1.3,0.6,1.2,1.5l-0.1,2.1l-0.9-0.1l0.1-1.9
			c0-0.6-0.1-0.8-0.5-0.8c-0.5,0-0.7,0.2-0.8,0.9l-0.1,1.8l-0.9-0.1L20.3,309.8z"/>
		<path d="M25.4,310.1l0.7,0l0,0.6l-0.7,0l-0.1,1.7c0,0.3,0.1,0.4,0.4,0.4c0.1,0,0.2,0,0.3,0l0,0.7c-0.2,0-0.4,0-0.6,0
			c-0.6,0-1.1-0.2-1-0.9l0.1-2l-0.6,0l0-0.6l0.6,0l0.1-1l0.9,0.1L25.4,310.1z"/>
		<path d="M27.3,312.2c0,0.6,0.2,0.9,0.8,1c0.4,0,0.7-0.1,0.7-0.4l0.8,0.1c-0.3,0.8-0.9,1.1-1.7,1.1c-1.1-0.1-1.7-0.8-1.7-1.9
			c0.1-1,0.8-1.7,1.8-1.8c1.2,0.1,1.7,1,1.6,2.1L27.3,312.2z M28.8,311.7c-0.1-0.5-0.2-0.7-0.7-0.8c-0.6,0-0.8,0.4-0.9,0.7
			L28.8,311.7z"/>
		<path d="M30.4,309.1l0.9,0.1l-0.2,4.7l-0.9-0.1L30.4,309.1z"/>
		<path d="M32.2,309.1l0.9,0.1l-0.2,4.7l-0.9-0.1L32.2,309.1z"/>
		<path d="M34.8,310.1l-0.9-0.1l0.1-0.8l0.9,0.1L34.8,310.1z M33.8,310.5l0.9,0.1l-0.1,3.4l-0.9-0.1L33.8,310.5z"/>
		<path d="M38.7,314c0,0.6-0.3,1.5-1.8,1.5c-0.7,0-1.5-0.4-1.4-1.2l0.9,0.1c0.1,0.4,0.4,0.5,0.7,0.5c0.5,0,0.8-0.3,0.8-0.8l0-0.5
			l0,0c-0.2,0.4-0.6,0.5-1,0.5c-1-0.1-1.4-0.9-1.4-1.8c0.1-0.9,0.6-1.7,1.5-1.6c0.5,0,0.8,0.2,1,0.6l0,0l0-0.5l0.9,0.1L38.7,314z
			 M37.9,312.4c0-0.6-0.1-1.1-0.7-1.1c-0.5,0-0.8,0.4-0.8,0.9c0,0.5,0.1,1,0.7,1.1C37.6,313.3,37.9,312.9,37.9,312.4z"/>
		<path d="M40.3,312.8c0,0.6,0.2,0.9,0.8,1c0.4,0,0.7-0.1,0.7-0.4l0.8,0.1c-0.3,0.8-0.9,1.1-1.7,1.1c-1.1-0.1-1.7-0.8-1.7-1.9
			c0.1-1,0.8-1.7,1.8-1.8c1.2,0.1,1.7,1,1.6,2.1L40.3,312.8z M41.8,312.3c-0.1-0.5-0.2-0.7-0.7-0.8c-0.6,0-0.8,0.4-0.9,0.7
			L41.8,312.3z"/>
		<path d="M43.4,311l0.9,0.1l0,0.5l0,0c0.2-0.4,0.6-0.6,1-0.5c1,0.1,1.3,0.6,1.2,1.5l-0.1,2.1l-0.9-0.1l0.1-1.9
			c0-0.6-0.1-0.8-0.5-0.8c-0.5,0-0.7,0.2-0.8,0.9l-0.1,1.8l-0.9-0.1L43.4,311z"/>
		<path d="M49.6,312.4c-0.1-0.4-0.3-0.6-0.7-0.6c-0.6,0-0.8,0.5-0.9,1c0,0.5,0.1,1.1,0.7,1.2c0.4,0,0.7-0.2,0.7-0.6l0.9,0.1
			c-0.2,0.9-0.8,1.3-1.7,1.3c-1-0.1-1.7-0.8-1.7-1.8c0.1-1.1,0.7-1.9,1.8-1.8c0.8,0.1,1.6,0.5,1.5,1.4L49.6,312.4z"/>
		<path d="M51.9,313.3c0,0.6,0.2,0.9,0.8,1c0.4,0,0.7-0.1,0.7-0.4l0.8,0.1c-0.3,0.8-0.9,1.1-1.7,1.1c-1.1-0.1-1.7-0.8-1.7-1.9
			c0.1-1,0.8-1.7,1.8-1.8c1.2,0.1,1.7,1,1.6,2.1L51.9,313.3z M53.4,312.8c-0.1-0.5-0.2-0.7-0.7-0.8c-0.6,0-0.8,0.4-0.9,0.7
			L53.4,312.8z"/>
	</g>
</g>
<g id="category1">
	<g>
		<path class="st0" d="M-55.5,306l170.8,30.1l-0.1,0.5c-3.4,19.5-10.2,38.3-20.3,55.7l-0.2,0.4L-55.5,306z"/>
		<path class="st1" d="M-52.8,307l167.5,29.6c-3.5,19.9-10.5,38.6-20.2,55.5L-52.8,307 M-58.2,305l4.9,2.8L94,392.9l0.9,0.5l0.5-0.9
			c10.1-17.5,16.9-36.3,20.3-55.8l0.2-1l-1-0.2L-52.6,306L-58.2,305L-58.2,305z"/>
	</g>
	<path class="st7" d="M95.1,392.3c9.7-16.8,16.6-35.5,20.1-55.3l-6.6-1.2c-3.4,19-10,36.9-19.3,53.2L95.1,392.3z"/>
	<path class="st7" d="M-3.5,335.4l6.7,3.8c3.6-6.3,6.2-13.3,7.5-20.7l-7.6-1.3C1.9,323.7-0.4,329.8-3.5,335.4z"/>
	<g>
		<path d="M18.4,331c0.1-0.5-0.2-1-0.7-1.1c-0.9-0.3-1.5,0.4-1.7,1.2c-0.2,0.8-0.2,1.6,0.7,1.9c0.6,0.2,1.1-0.1,1.4-0.7l1,0.3
			c-0.5,1.1-1.5,1.6-2.6,1.2c-1.4-0.5-1.9-1.8-1.5-3.1s1.6-2.1,3-1.7c1,0.3,1.6,1.2,1.4,2.3L18.4,331z"/>
		<path d="M21.7,331.6c1,0.3,1.5,1.2,1.1,2.3c-0.3,1-1.2,1.5-2.3,1.2c-1-0.3-1.5-1.2-1.1-2.3C19.8,331.8,20.7,331.3,21.7,331.6z
			 M20.8,334.4c0.6,0.2,1-0.3,1.1-0.8c0.2-0.5,0.2-1.1-0.5-1.3c-0.6-0.2-1,0.3-1.1,0.8S20.2,334.2,20.8,334.4z"/>
		<path d="M24,332.5l0.9,0.3l-0.1,0.5l0,0c0.3-0.3,0.8-0.3,1.2-0.2c1,0.3,1,0.9,0.8,1.7l-0.7,2l-0.9-0.3l0.6-1.8
			c0.2-0.5,0.1-0.9-0.3-1c-0.5-0.2-0.8,0-1,0.7l-0.6,1.7l-0.9-0.3L24,332.5z"/>
		<path d="M27.7,336.1c-0.1,0.4,0.2,0.7,0.5,0.8c0.3,0.1,0.6,0.1,0.7-0.2c0.1-0.3-0.3-0.5-0.9-0.8c-0.5-0.3-0.9-0.6-0.8-1.2
			c0.3-0.8,1.1-0.8,1.8-0.6s1.3,0.7,1.1,1.5l-0.9-0.3c0.1-0.4-0.1-0.5-0.5-0.6c-0.2-0.1-0.5-0.1-0.6,0.1c-0.1,0.3,0.4,0.5,0.9,0.8
			s0.9,0.6,0.7,1.3c-0.3,0.9-1.1,0.9-1.9,0.7c-0.8-0.2-1.4-0.8-1.2-1.7L27.7,336.1z"/>
		<path d="M33.2,339.1l-0.9-0.3l0.1-0.5l0,0c-0.3,0.3-0.8,0.3-1.2,0.2c-1-0.3-1-0.9-0.8-1.7l0.7-2l0.9,0.3l-0.6,1.8
			c-0.2,0.5-0.1,0.9,0.3,1c0.5,0.2,0.8,0,1-0.7l0.6-1.7l0.9,0.3L33.2,339.1z"/>
		<path d="M35.3,334.8l0.9,0.3l-1.5,4.5l-0.9-0.3L35.3,334.8z"/>
		<path d="M37.7,336.9l0.7,0.2l-0.2,0.6l-0.7-0.2l-0.5,1.6c-0.1,0.3,0,0.4,0.3,0.5c0.1,0,0.2,0.1,0.3,0.1l-0.2,0.7
			c-0.2,0-0.4-0.1-0.5-0.1c-0.6-0.2-1-0.5-0.8-1.1l0.6-1.9l-0.5-0.2l0.2-0.6l0.5,0.2l0.3-1l0.9,0.3L37.7,336.9z"/>
		<path d="M38.8,337.3l0.9,0.3l-1.1,3.3l-0.9-0.3L38.8,337.3z M39.9,337.1l-0.9-0.3l0.2-0.7l0.9,0.3L39.9,337.1z"/>
		<path d="M40.4,337.8l0.9,0.3l-0.1,0.5l0,0c0.3-0.3,0.8-0.3,1.2-0.2c1,0.3,1,0.9,0.8,1.7l-0.7,2l-0.9-0.3l0.6-1.8
			c0.2-0.5,0.1-0.9-0.3-1c-0.5-0.2-0.8,0-1,0.7l-0.6,1.7l-0.9-0.3L40.4,337.8z"/>
		<path d="M46.3,343.1c-0.2,0.5-0.7,1.4-2.2,0.9c-0.6-0.2-1.3-0.8-1.1-1.5l0.9,0.3c0,0.4,0.2,0.6,0.5,0.7c0.5,0.2,0.8-0.1,1-0.6
			l0.1-0.4l0,0c-0.3,0.3-0.8,0.3-1.1,0.2c-1-0.3-1.2-1.2-0.9-2.1c0.3-0.8,1-1.5,1.9-1.2c0.4,0.1,0.7,0.4,0.8,0.8l0,0l0.1-0.4
			l0.9,0.3L46.3,343.1z M45.9,341.4c0.2-0.5,0.1-1.1-0.4-1.3s-0.9,0.2-1,0.7c-0.2,0.5-0.1,1,0.4,1.2S45.8,341.8,45.9,341.4z"/>
	</g>
</g>
<g id="category2">
	<g>
		<path class="st0" d="M-55.1,305.3L95,392l-0.2,0.4c-9.9,17.2-22.7,32.4-38.1,45.4l-0.4,0.3L-55.1,305.3z"/>
		<path class="st1" d="M-52.9,307.2l147.3,85c-10,17.2-22.9,32.5-38,45.3L-52.9,307.2 M-57.3,303.5l3.6,4.3L55.6,438.1l0.6,0.8
			l0.8-0.6c15.4-13,28.3-28.3,38.2-45.5l0.5-0.9l-0.9-0.5l-147.3-85L-57.3,303.5L-57.3,303.5z"/>
	</g>
	<path class="st8" d="M52.7,432.8l4.3,5.1c15.1-12.7,28-28,37.9-45.2l-5.8-3.4C79.5,405.8,67.3,420.5,52.7,432.8z"/>
	<path class="st8" d="M-16.3,350.6l4.9,5.9c5.6-4.8,10.4-10.5,14.2-16.9l-6.7-3.8C-7.1,341.4-11.3,346.4-16.3,350.6z"/>
	<g>
		<path d="M8.4,350.2l1.5,1.4c0.9,0.8,1.1,2,0,3.2c-0.9,1-2.1,1.3-3.2,0.4l-1.5-1.4L8.4,350.2z M6.6,353.8l0.7,0.6
			c0.5,0.4,1.1,0.5,1.8-0.3c0.6-0.7,0.8-1.4,0-2.1l-0.6-0.5L6.6,353.8z"/>
		<path d="M10.4,355.1c0.6-0.6,1.4-0.3,2,0.2c0.5,0.5,1,1.1,0.5,1.7l-1.2,1.3c-0.2,0.2-0.4,0.5-0.4,0.7l-0.7-0.6
			c0-0.1,0.1-0.2,0.2-0.3c-0.4,0-0.8-0.2-1.1-0.5c-0.5-0.4-0.7-1-0.2-1.5c0.5-0.6,1.1-0.3,1.6,0c0.5,0.3,0.9,0.7,1.1,0.4
			c0.3-0.3,0.1-0.5-0.1-0.8c-0.3-0.2-0.5-0.3-0.8,0L10.4,355.1z M11.5,357.1c-0.2,0-0.5-0.2-0.7-0.4c-0.3-0.1-0.5-0.3-0.8,0
			c-0.2,0.3-0.1,0.5,0.1,0.7c0.6,0.5,1,0.1,1.1-0.1L11.5,357.1z"/>
		<path d="M14.9,357.7l0.5,0.5l-0.4,0.5l-0.5-0.5l-1.1,1.3c-0.2,0.2-0.2,0.4,0,0.6c0.1,0.1,0.1,0.1,0.2,0.2l-0.5,0.6
			c-0.1-0.1-0.3-0.2-0.4-0.3c-0.4-0.4-0.7-0.8-0.3-1.3l1.3-1.5l-0.4-0.4l0.4-0.5l0.4,0.4l0.7-0.8l0.7,0.6L14.9,357.7z"/>
		<path d="M15,359.2c0.6-0.6,1.4-0.3,2,0.2c0.5,0.5,1,1.1,0.5,1.7l-1.2,1.3c-0.2,0.2-0.4,0.5-0.4,0.7l-0.7-0.6
			c0-0.1,0.1-0.2,0.2-0.3c-0.4,0-0.8-0.2-1.1-0.5c-0.5-0.4-0.7-1-0.2-1.5c0.5-0.6,1.1-0.3,1.6,0c0.5,0.3,0.9,0.7,1.1,0.4
			c0.3-0.3,0.1-0.5-0.1-0.8c-0.3-0.2-0.5-0.3-0.8,0L15,359.2z M16.2,361.2c-0.2,0-0.5-0.2-0.7-0.4c-0.3-0.2-0.5-0.3-0.8,0
			c-0.2,0.3-0.1,0.5,0.1,0.7c0.6,0.5,1,0.1,1.1-0.1L16.2,361.2z"/>
		<path d="M4,357l0.8,0.7L3,362.4l-0.8-0.7l0.4-1l-1.3-1.2l-1,0.5l-0.8-0.7L4,357z M2,359.1l0.9,0.8l0.7-1.7l0,0L2,359.1z"/>
		<path d="M5.5,360.1l0.7,0.6l-0.3,0.4l0,0c0.4-0.1,0.9,0,1.2,0.3c0.8,0.7,0.6,1.3,0,1.9l-1.4,1.6L5,364.3l1.3-1.5
			c0.4-0.4,0.4-0.7,0.1-1c-0.4-0.3-0.7-0.3-1.2,0.2L4,363.3l-0.7-0.6L5.5,360.1z"/>
		<path d="M7.7,363.5c0.6-0.6,1.4-0.3,2,0.2c0.5,0.5,1,1.1,0.5,1.7L9,366.7c-0.2,0.2-0.4,0.5-0.4,0.7l-0.7-0.6
			c0-0.1,0.1-0.2,0.2-0.3c-0.4,0-0.8-0.2-1.1-0.5c-0.5-0.4-0.7-1-0.2-1.5c0.5-0.6,1.1-0.3,1.6,0c0.5,0.3,0.9,0.7,1.1,0.4
			c0.3-0.3,0.1-0.5-0.1-0.8c-0.3-0.2-0.5-0.3-0.8,0L7.7,363.5z M8.9,365.4c-0.2,0-0.5-0.2-0.7-0.4c-0.3-0.2-0.5-0.3-0.8,0
			c-0.2,0.3-0.1,0.5,0.1,0.7c0.6,0.5,1,0.1,1.1-0.1L8.9,365.4z"/>
		<path d="M12.2,364.3l0.7,0.6l-3.2,3.5L9,367.8L12.2,364.3z"/>
		<path d="M11.3,370.4c-0.5,0.3-0.9,0.2-1.4-0.2c-0.1-0.1-0.3-0.3-0.4-0.4l0.5-0.6c0.1,0.1,0.2,0.3,0.4,0.4c0.3,0.2,0.6,0,0.7-0.3
			l1.2-3.2l0.8,0.7l-1,2.3l0,0l2.1-1.3l0.7,0.7L11.3,370.4z"/>
		<path d="M16.1,369.5l0.5,0.5l-0.4,0.5l-0.5-0.5l-1.1,1.3c-0.2,0.2-0.2,0.4,0,0.6c0.1,0.1,0.1,0.1,0.2,0.2l-0.5,0.6
			c-0.1-0.1-0.3-0.2-0.4-0.3c-0.4-0.4-0.7-0.8-0.3-1.3l1.3-1.5l-0.4-0.4l0.4-0.5l0.4,0.4l0.7-0.8l0.7,0.6L16.1,369.5z"/>
		<path d="M17,370.3l0.7,0.6l-2.3,2.6l-0.7-0.6L17,370.3z M18,370.5l-0.7-0.6l0.5-0.6l0.7,0.6L18,370.5z"/>
		<path d="M19.2,373.9c0.2-0.3,0.2-0.6-0.1-0.9c-0.5-0.4-1-0.1-1.3,0.3s-0.6,0.9-0.1,1.3c0.3,0.3,0.7,0.3,1,0l0.7,0.6
			c-0.7,0.6-1.5,0.6-2.2,0c-0.8-0.7-0.8-1.7-0.1-2.5c0.7-0.8,1.7-1,2.5-0.2c0.6,0.5,0.9,1.4,0.3,2L19.2,373.9z"/>
		<path d="M20.1,376.2c-0.3,0.3-0.1,0.7,0.2,0.9c0.2,0.2,0.5,0.3,0.8,0.1c0.2-0.2,0-0.5-0.4-1.1c-0.3-0.5-0.6-1-0.2-1.4
			c0.6-0.7,1.3-0.3,1.9,0.2c0.6,0.5,0.9,1.1,0.4,1.8l-0.7-0.6c0.2-0.3,0.1-0.6-0.2-0.8c-0.2-0.1-0.4-0.3-0.6-0.1
			c-0.2,0.3,0.1,0.6,0.5,1.1c0.3,0.5,0.6,1,0.2,1.4c-0.6,0.7-1.4,0.4-2-0.2c-0.6-0.5-1-1.3-0.4-2L20.1,376.2z"/>
	</g>
</g>
<g id="category3">
	<g>
		<path class="st0" d="M-54.5,304.9L57,437.7l-0.4,0.3c-15.2,12.7-32.5,22.7-51.4,29.7l-0.5,0.2L-54.5,304.9z"/>
		<path class="st1" d="M-53.1,307.4L56.3,437.6c-15.1,12.6-32.4,22.7-51.2,29.7L-53.1,307.4 M-56,302.4l1.9,5.3L4.1,467.6l0.3,0.9
			l0.9-0.4c18.9-7,36.3-17.1,51.5-29.8l0.8-0.6l-0.6-0.8L-52.3,306.8L-56,302.4L-56,302.4z"/>
	</g>
	<path class="st9" d="M5.5,467.6c18.8-6.9,36.1-16.9,51-29.5l-4.3-5.1c-14.4,12.2-30.9,22-48.9,28.6L5.5,467.6z"/>
	<path class="st9" d="M-33.4,360.6l2.6,7.2c7-2.6,13.5-6.3,19.1-11l-4.9-5.9C-21.6,355-27.2,358.3-33.4,360.6z"/>
	<g>
		<path d="M-9.9,368.2l1.1,1.8c0.6,1.1,0.4,2.2-0.9,3.1c-1.2,0.7-2.4,0.6-3.2-0.6l-1.1-1.8L-9.9,368.2z M-12.7,371.1l0.5,0.8
			c0.3,0.5,0.9,0.8,1.8,0.3c0.8-0.5,1.2-1.1,0.6-2l-0.4-0.6L-12.7,371.1z"/>
		<path d="M-8.6,373.1l0.5,0.8l-3,1.8l-0.5-0.8L-8.6,373.1z M-7.6,373.6l-0.5-0.8l0.7-0.4l0.5,0.8L-7.6,373.6z"/>
		<path d="M-8.8,379c-0.5,0.3-1.4,0.6-2.2-0.7c-0.3-0.6-0.5-1.4,0.2-1.9l0.5,0.8c-0.3,0.3-0.2,0.6,0,0.8c0.3,0.5,0.7,0.5,1.1,0.2
			l0.4-0.2l0,0c-0.4,0-0.8-0.3-1-0.6c-0.5-0.9-0.1-1.7,0.7-2.1c0.8-0.5,1.7-0.4,2.2,0.4c0.2,0.4,0.3,0.8,0.1,1.2l0,0l0.4-0.2
			l0.5,0.8L-8.8,379z M-7.9,377.5c0.5-0.3,0.8-0.7,0.5-1.2s-0.8-0.4-1.2-0.2c-0.4,0.3-0.8,0.7-0.5,1.2
			C-8.9,377.7-8.3,377.7-7.9,377.5z"/>
		<path d="M-5.6,378l0.5,0.8l-3,1.8l-0.5-0.8L-5.6,378z M-4.7,378.6l-0.5-0.8l0.7-0.4l0.5,0.8L-4.7,378.6z"/>
		<path d="M-4.1,380.5l0.4,0.6l-0.5,0.3l-0.4-0.6l-1.5,0.9c-0.3,0.2-0.3,0.3-0.1,0.5c0.1,0.1,0.1,0.2,0.2,0.2l-0.6,0.4
			c-0.1-0.1-0.2-0.3-0.3-0.5c-0.3-0.5-0.4-1,0.1-1.4l1.7-1l-0.3-0.5l0.5-0.3l0.3,0.5l0.9-0.5l0.5,0.8L-4.1,380.5z"/>
		<path d="M-4.5,382c0.8-0.4,1.4,0.1,1.8,0.8c0.4,0.6,0.6,1.4-0.1,1.8l-1.5,0.9c-0.3,0.2-0.5,0.3-0.6,0.5l-0.5-0.8
			c0.1-0.1,0.2-0.2,0.3-0.2c-0.4-0.1-0.7-0.4-1-0.8c-0.3-0.6-0.3-1.2,0.3-1.5c0.7-0.4,1.1,0,1.5,0.5s0.6,0.9,1,0.7
			c0.3-0.2,0.3-0.5,0.1-0.8c-0.2-0.3-0.4-0.4-0.8-0.3L-4.5,382z M-3.9,384.3c-0.2-0.1-0.4-0.3-0.6-0.6c-0.2-0.2-0.4-0.4-0.7-0.2
			s-0.2,0.5-0.1,0.7c0.4,0.6,0.9,0.4,1.1,0.2L-3.9,384.3z"/>
		<path d="M-0.4,384.1l0.5,0.8l-4.1,2.4l-0.5-0.8L-0.4,384.1z"/>
		<path d="M-0.7,388.4c0.8-0.4,1.4,0.1,1.8,0.8c0.4,0.6,0.6,1.4-0.1,1.8l-1.5,0.9c-0.3,0.2-0.5,0.3-0.6,0.5l-0.5-0.8
			c0.1-0.1,0.2-0.2,0.3-0.2c-0.4-0.1-0.7-0.4-1-0.8c-0.3-0.6-0.3-1.2,0.3-1.5c0.7-0.4,1.1,0,1.5,0.5s0.6,0.9,1,0.7
			c0.3-0.2,0.3-0.5,0.1-0.8c-0.2-0.3-0.4-0.4-0.8-0.3L-0.7,388.4z M-0.1,390.6c-0.2-0.1-0.4-0.3-0.6-0.6c-0.2-0.2-0.4-0.4-0.7-0.2
			c-0.3,0.2-0.2,0.5-0.1,0.7c0.4,0.6,0.9,0.4,1.1,0.2L-0.1,390.6z"/>
		<path d="M2.2,391.1l0.5,0.8l-0.4,0.2l0,0c0.5,0,0.8,0.3,1,0.6c0.5,0.9,0.2,1.4-0.6,1.8l-1.8,1.1l-0.5-0.8l1.7-1
			c0.5-0.3,0.6-0.6,0.4-1c-0.3-0.4-0.6-0.5-1.2-0.1l-1.5,0.9l-0.5-0.8L2.2,391.1z"/>
		<path d="M2.9,398.2L2.9,398.2c-0.4,0-0.8-0.3-1-0.6c-0.5-0.9,0-1.8,0.8-2.3s1.8-0.5,2.3,0.4c0.2,0.3,0.3,0.8,0.1,1.1l0,0l1.5-0.9
			l0.5,0.8L3,399.1l-0.5-0.8L2.9,398.2z M4.6,396.2c-0.3-0.5-0.9-0.4-1.4-0.2c-0.5,0.3-0.8,0.8-0.5,1.3s0.9,0.4,1.4,0.1
			C4.5,397.2,4.9,396.8,4.6,396.2z"/>
		<path d="M-16.8,372.3l0.8,1.3l-2.2,2.6l0,0l3.3-0.8l0.8,1.3l-4.1,2.4l-0.5-0.8l2.9-1.7l0,0l-3.5,0.7l-0.4-0.7l2.3-2.7l0,0
			l-2.9,1.7l-0.5-0.8L-16.8,372.3z"/>
		<path d="M-13.9,379.5c0.6,0.9,0.3,1.9-0.6,2.5c-0.9,0.6-1.9,0.3-2.5-0.6s-0.3-1.9,0.6-2.5C-15.5,378.3-14.5,378.6-13.9,379.5z
			 M-16.4,381c0.3,0.6,0.9,0.4,1.4,0.2c0.5-0.3,0.8-0.7,0.5-1.3c-0.3-0.5-0.9-0.4-1.4-0.1C-16.4,380-16.8,380.4-16.4,381z"/>
		<path d="M-11.7,380.9l0.5,0.8l-1.5,0.9l0,0c0.4,0,0.8,0.3,1,0.7c0.4,0.6,0.3,1.5-0.8,2.2c-1.1,0.6-1.9,0.3-2.3-0.3
			c-0.3-0.4-0.3-0.9-0.1-1.2l0,0l-0.4,0.2l-0.5-0.8L-11.7,380.9z M-12.4,383.4c-0.3-0.5-0.9-0.4-1.4-0.1c-0.5,0.3-0.8,0.8-0.5,1.3
			s0.9,0.4,1.4,0.1C-12.5,384.4-12.1,383.9-12.4,383.4z"/>
		<path d="M-10.7,385.1l0.5,0.8l-3,1.8l-0.5-0.8L-10.7,385.1z M-9.7,385.7l-0.5-0.8l0.7-0.4l0.5,0.8L-9.7,385.7z"/>
		<path d="M-8.7,385.9l0.5,0.8l-4.1,2.4l-0.5-0.8L-8.7,385.9z"/>
		<path d="M-10.2,389.7c-0.5,0.3-0.6,0.7-0.3,1.2c0.2,0.3,0.6,0.5,0.8,0.4l0.4,0.7c-0.8,0.2-1.4-0.1-1.8-0.8
			c-0.6-0.9-0.3-1.9,0.7-2.4c0.9-0.5,1.9-0.3,2.5,0.6c0.6,1,0,2-0.9,2.5L-10.2,389.7z M-8.9,390.7c0.4-0.3,0.5-0.6,0.2-1
			c-0.3-0.5-0.8-0.4-1-0.3L-8.9,390.7z"/>
		<path d="M-5.1,393.7l-0.7-1.2L-5,392l2,3.3l-0.8,0.5l-0.7-1.2l-3.3,2l-0.5-0.9L-5.1,393.7z"/>
		<path d="M-5.6,397.4c-0.5,0.3-0.6,0.7-0.3,1.2c0.2,0.3,0.6,0.5,0.8,0.4l0.4,0.7c-0.8,0.2-1.4-0.1-1.8-0.8
			c-0.6-0.9-0.3-1.9,0.7-2.4c0.9-0.5,1.9-0.3,2.5,0.6c0.6,1,0,2-0.9,2.5L-5.6,397.4z M-4.3,398.5c0.4-0.3,0.5-0.6,0.2-1
			c-0.3-0.5-0.8-0.4-1-0.3L-4.3,398.5z"/>
		<path d="M-2.2,401.7c0.3-0.2,0.4-0.6,0.2-0.9c-0.3-0.5-0.9-0.4-1.4-0.1c-0.4,0.3-0.8,0.7-0.5,1.2c0.2,0.4,0.6,0.5,1,0.3l0.5,0.8
			c-0.8,0.4-1.6,0.1-2.1-0.7c-0.5-0.9-0.3-1.9,0.6-2.4c0.9-0.5,1.9-0.4,2.5,0.6c0.4,0.7,0.4,1.6-0.3,2.1L-2.2,401.7z"/>
		<path d="M0.7,401.7l0.5,0.8l-1.5,0.9l0,0c0.5,0,0.8,0.3,1,0.6c0.5,0.9,0.2,1.4-0.6,1.8l-1.8,1.1l-0.5-0.8l1.7-1
			c0.5-0.3,0.6-0.6,0.4-1c-0.3-0.4-0.6-0.5-1.2-0.1l-1.5,0.9l-0.5-0.8L0.7,401.7z"/>
		<path d="M1.6,405.7l0.5,0.8l-0.4,0.2l0,0c0.5,0,0.8,0.3,1,0.6c0.5,0.9,0.2,1.4-0.6,1.8l-1.8,1.1l-0.5-0.8l1.7-1
			c0.5-0.3,0.6-0.6,0.4-1c-0.3-0.4-0.6-0.5-1.2-0.1l-1.5,0.9l-0.5-0.8L1.6,405.7z"/>
		<path d="M4.6,410.5c0.6,0.9,0.3,1.9-0.6,2.5c-0.9,0.6-1.9,0.3-2.5-0.6s-0.3-1.9,0.6-2.5C3.1,409.3,4,409.6,4.6,410.5z M2.1,412
			c0.3,0.6,0.9,0.4,1.4,0.2c0.5-0.3,0.8-0.7,0.5-1.3c-0.3-0.5-0.9-0.4-1.4-0.1C2.1,411,1.8,411.4,2.1,412z"/>
		<path d="M6.9,412l0.5,0.8l-4.1,2.4l-0.5-0.8L6.9,412z"/>
		<path d="M7.6,415.5c0.6,0.9,0.3,1.9-0.6,2.5c-0.9,0.6-1.9,0.3-2.5-0.6s-0.3-1.9,0.6-2.5C6,414.3,7,414.5,7.6,415.5z M5.1,417
			c0.3,0.6,0.9,0.4,1.4,0.2c0.5-0.3,0.8-0.7,0.5-1.3c-0.3-0.5-0.9-0.4-1.4-0.1C5.1,416,4.7,416.4,5.1,417z"/>
		<path d="M7.7,422.1c-0.5,0.3-1.4,0.6-2.2-0.7c-0.3-0.6-0.5-1.4,0.2-1.9l0.5,0.8c-0.3,0.3-0.2,0.6,0,0.8c0.3,0.5,0.7,0.5,1.1,0.2
			l0.4-0.2l0,0c-0.4,0-0.8-0.3-1-0.6c-0.5-0.9-0.1-1.7,0.7-2.1c0.8-0.5,1.7-0.4,2.2,0.4c0.2,0.4,0.3,0.8,0.1,1.2l0,0l0.4-0.2
			l0.5,0.8L7.7,422.1z M8.5,420.5c0.5-0.3,0.8-0.7,0.5-1.2s-0.8-0.4-1.2-0.2c-0.4,0.3-0.8,0.7-0.5,1.2
			C7.6,420.8,8.1,420.8,8.5,420.5z"/>
		<path d="M10.8,421.1l0.5,0.8l-3,1.8l-0.5-0.8L10.8,421.1z M11.8,421.6l-0.5-0.8l0.7-0.4l0.5,0.8L11.8,421.6z"/>
		<path d="M10.4,424.2c-0.5,0.3-0.6,0.7-0.3,1.2c0.2,0.3,0.6,0.5,0.8,0.4l0.4,0.7c-0.8,0.2-1.4-0.1-1.8-0.8
			c-0.6-0.9-0.3-1.9,0.7-2.4c0.9-0.5,1.9-0.3,2.5,0.6c0.6,1,0,2-0.9,2.5L10.4,424.2z M11.7,425.2c0.4-0.3,0.5-0.6,0.2-1
			c-0.3-0.5-0.8-0.4-1-0.3L11.7,425.2z"/>
		<path d="M12,427.6c-0.4,0.2-0.3,0.6-0.1,0.9c0.1,0.2,0.4,0.5,0.7,0.3c0.2-0.1,0.1-0.5-0.1-1.2c-0.2-0.5-0.3-1.1,0.2-1.4
			c0.8-0.5,1.3,0.1,1.7,0.7s0.5,1.4-0.2,1.9l-0.5-0.8c0.3-0.2,0.2-0.5,0.1-0.8c-0.1-0.2-0.3-0.4-0.5-0.3c-0.3,0.2-0.1,0.7,0.1,1.2
			c0.2,0.5,0.3,1.1-0.3,1.4c-0.8,0.5-1.4-0.1-1.8-0.7c-0.4-0.7-0.6-1.5,0.2-2L12,427.6z"/>
	</g>
</g>
<g id="category4">
	<g>
		<path class="st0" d="M-54.5,478V304.6l59.3,163l-0.5,0.2C-14.4,474.5-34,478-54,478H-54.5z"/>
		<path class="st1" d="M-54,307.4L4.2,467.3c-18.2,6.6-37.7,10.2-58.2,10.2V307.4 M-55,301.7v5.7v170v1h1c20.1,0,39.8-3.4,58.5-10.2
			l0.9-0.3L5.1,467l-58.2-159.9L-55,301.7L-55,301.7z"/>
	</g>
	<path class="st10" d="M-53.7,478c20.9,0,40.1-3.6,58.2-10.1l-2.2-6c-17.4,6.3-36.1,9.8-56,9.9V478z"/>
	<path class="st10" d="M-53.1,364.1c-0.2,0-0.4,0-0.6,0v7.7c0.2,0,0.4,0,0.6,0c7.4,0,14.6-1.3,21.2-3.6l-2.6-7.2
		C-40.3,363-46.6,364.1-53.1,364.1z"/>
	<g>
		<path d="M-36.7,380.9l0.7,3.5l-0.9,0.2l-0.5-2.5l-1,0.2l0.4,2.3l-0.8,0.2l-0.4-2.3l-1.1,0.2l0.5,2.5l-0.9,0.2l-0.7-3.5
			L-36.7,380.9z"/>
		<path d="M-38.4,385.5l0.4,2l-0.8,0.2l-0.4-2L-38.4,385.5z"/>
		<path d="M-37.5,390.5c0.4-0.1,0.5-0.4,0.5-0.8c-0.1-0.6-0.8-0.7-1.2-0.6c-0.5,0.1-1,0.4-0.9,1c0.1,0.4,0.4,0.6,0.8,0.6l0.2,0.9
			c-0.9,0.1-1.5-0.5-1.7-1.4c-0.2-1,0.4-1.8,1.4-2c1.1-0.2,1.9,0.3,2.2,1.4c0.2,0.8-0.1,1.6-1,1.8L-37.5,390.5z"/>
		<path d="M-35.6,393.4c0.2,1.1-0.4,1.9-1.5,2.1s-1.9-0.3-2.1-1.4c-0.2-1.1,0.4-1.9,1.4-2.1C-36.6,391.8-35.8,392.3-35.6,393.4z
			 M-38.4,393.9c0.1,0.6,0.7,0.7,1.2,0.6s1-0.4,0.9-1s-0.7-0.7-1.2-0.6C-38.1,393-38.6,393.3-38.4,393.9z"/>
		<path d="M-35.2,395.8l0.2,0.9l-0.5,0.1l0,0c0.4,0.2,0.7,0.5,0.7,0.9c0.1,0.4,0,0.8-0.4,1.1c0.3,0.1,0.7,0.4,0.8,0.9
			c0.1,0.7-0.1,1.3-1,1.5l-2.3,0.4l-0.2-0.9l1.9-0.4c0.5-0.1,0.8-0.2,0.7-0.7s-0.5-0.5-1-0.5l-1.9,0.4l-0.2-0.9l1.9-0.4
			c0.4-0.1,0.8-0.1,0.7-0.7c0-0.2-0.2-0.6-0.9-0.5l-2,0.4l-0.2-0.9L-35.2,395.8z"/>
		<path d="M-34.1,401.7l0.2,0.9l-0.5,0.1l0,0c0.4,0.2,0.7,0.5,0.7,0.9c0.1,0.4,0,0.8-0.4,1.1c0.3,0.1,0.7,0.4,0.8,0.9
			c0.1,0.7-0.1,1.3-1,1.5l-2.3,0.4l-0.2-0.9l1.9-0.4c0.5-0.1,0.8-0.2,0.7-0.7s-0.5-0.5-1-0.5l-1.9,0.4l-0.2-0.9l1.9-0.4
			c0.4-0.1,0.8-0.1,0.7-0.7c0-0.2-0.2-0.6-0.9-0.5l-2,0.4l-0.2-0.9L-34.1,401.7z"/>
		<path d="M-34.7,408.7c-0.6,0.1-0.8,0.5-0.7,1c0.1,0.4,0.4,0.6,0.6,0.6l0.2,0.8c-0.8-0.1-1.3-0.6-1.4-1.4c-0.2-1.1,0.4-1.9,1.4-2.1
			s1.9,0.4,2.1,1.4c0.2,1.1-0.6,1.9-1.7,2L-34.7,408.7z M-33.9,410.1c0.5-0.2,0.7-0.4,0.6-0.9c-0.1-0.6-0.6-0.7-0.9-0.6L-33.9,410.1
			z"/>
		<path d="M-32.3,411.4l0.2,0.9l-0.6,0.1l0,0c0.5,0.1,0.8,0.5,0.9,0.9c0,0.1,0,0.1,0,0.2l-0.9,0.2c0-0.1,0-0.2,0-0.3
			c-0.1-0.7-0.7-0.8-1.3-0.7l-1.5,0.3l-0.2-0.9L-32.3,411.4z"/>
		<path d="M-32.5,416.3c0.4-0.1,0.5-0.4,0.5-0.8c-0.1-0.6-0.8-0.7-1.2-0.6c-0.5,0.1-1,0.4-0.9,1c0.1,0.4,0.4,0.6,0.8,0.6l0.2,0.9
			c-0.9,0.1-1.5-0.5-1.7-1.4c-0.2-1,0.4-1.8,1.4-2c1.1-0.2,2,0.3,2.2,1.4c0.2,0.8-0.1,1.6-1,1.8L-32.5,416.3z"/>
		<path d="M-32.8,418.7c-0.6,0.1-0.8,0.5-0.7,1c0.1,0.4,0.4,0.6,0.6,0.6l0.2,0.8c-0.8-0.1-1.3-0.6-1.4-1.4c-0.2-1.1,0.4-1.9,1.4-2.1
			s1.9,0.4,2.1,1.4c0.2,1.2-0.6,1.9-1.7,2L-32.8,418.7z M-32,420.1c0.5-0.2,0.7-0.4,0.6-0.9c-0.1-0.6-0.6-0.7-0.9-0.6L-32,420.1z"/>
	</g>
</g>
<g id="category5">
	<g>
		<path class="st0" d="M-54,478c-20-0.1-39.6-3.6-58.3-10.3l-0.5-0.2l59.2-162.9V478L-54,478z"/>
		<path class="st1" d="M-54,307.4v170c-20.5-0.1-39.9-3.7-58.1-10.3L-54,307.4 M-53,301.7l-1.9,5.3l-58.1,159.8l-0.3,0.9l0.9,0.3
			c18.7,6.7,38.3,10.2,58.4,10.3l1,0v-1v-170V301.7L-53,301.7z"/>
	</g>
	<path class="st11" d="M-53.8,471.8c-19.5,0-38.3-3.4-55.7-9.6l-2.1,5.5c0,0,0,0,0,0l-0.1,0.2c18.2,6.6,38,10.1,57.9,10.1V471.8z"/>
	<path class="st11" d="M-75.4,367.9c6.8,2.5,14.1,3.8,21.7,3.9v-7.7c-6.7-0.1-13.1-1.3-19-3.4L-75.4,367.9z"/>
	<g>
		<path d="M-75.7,410.1l0.2-1l1.8,0.4l0.4-1.9l-1.8-0.4l0.2-1l4.7,1l-0.2,1l-2-0.4l-0.4,1.9l2,0.4l-0.2,1L-75.7,410.1z"/>
		<path d="M-72.4,405.9c-0.9-0.2-1-1.1-0.8-1.8c0.1-0.7,0.5-1.4,1.3-1.3l1.8,0.4c0.3,0.1,0.6,0.1,0.8,0l-0.2,0.9c-0.1,0-0.2,0-0.3,0
			c0.2,0.4,0.3,0.8,0.2,1.2c-0.1,0.6-0.6,1.1-1.2,0.9c-0.8-0.2-0.8-0.8-0.8-1.4s0.2-1.1-0.2-1.2s-0.5,0.2-0.6,0.5
			c-0.1,0.4,0,0.6,0.4,0.7L-72.4,405.9z M-71.3,403.9c0.1,0.2,0,0.5,0,0.8s0,0.6,0.4,0.6c0.3,0.1,0.5-0.2,0.5-0.5
			c0.1-0.7-0.4-0.9-0.6-0.9H-71.3z"/>
		<path d="M-72.7,401.9l0.2-0.9l0.6,0.1l0,0c-0.4-0.3-0.6-0.8-0.5-1.2c0-0.1,0-0.1,0.1-0.2l0.9,0.2c0,0.1-0.1,0.2-0.1,0.3
			c-0.1,0.7,0.3,1,0.9,1.1l1.5,0.3l-0.2,0.9L-72.7,401.9z"/>
		<path d="M-68.7,397.7L-68.7,397.7c0.3,0.3,0.4,0.7,0.3,1.1c-0.2,1-1.2,1.3-2.1,1.1c-0.9-0.2-1.6-0.9-1.4-1.8
			c0.1-0.4,0.3-0.8,0.7-0.9l0,0l-1.7-0.3l0.2-0.9l4.7,1l-0.2,0.9L-68.7,397.7z M-71.2,398c-0.1,0.6,0.4,0.9,0.9,1s1.1,0,1.2-0.6
			c0.1-0.6-0.4-0.9-0.9-1C-70.6,397.3-71.1,397.4-71.2,398z"/>
		<path d="M-67.2,392.3l-0.2,1l-2.4,0.1l0,0l2.1,1l-0.2,1l-3.6,0.4l0.2-1l2.4-0.2l0,0l-2.2-1l0.2-0.9l2.4-0.1l0,0l-2.2-1.1l0.2-1
			L-67.2,392.3z"/>
		<path d="M-69.2,390.4c-0.9-0.2-1-1.1-0.8-1.8c0.1-0.7,0.5-1.4,1.3-1.3l1.8,0.4c0.3,0.1,0.6,0.1,0.8,0l-0.2,0.9c-0.1,0-0.2,0-0.3,0
			c0.2,0.4,0.3,0.8,0.2,1.2c-0.1,0.6-0.6,1.1-1.2,0.9c-0.8-0.2-0.8-0.8-0.8-1.4c0-0.6,0.2-1.1-0.2-1.2c-0.4-0.1-0.5,0.2-0.6,0.5
			c-0.1,0.4,0,0.6,0.4,0.7L-69.2,390.4z M-68.1,388.4c0.1,0.2,0,0.5,0,0.8s0,0.6,0.4,0.6c0.3,0.1,0.5-0.2,0.5-0.5
			c0.1-0.7-0.4-0.9-0.6-0.9H-68.1z"/>
		<path d="M-69.5,386.5l0.2-0.9l0.6,0.1l0,0c-0.4-0.3-0.6-0.8-0.5-1.2c0-0.1,0-0.1,0.1-0.2l0.9,0.2c0,0.1-0.1,0.2-0.1,0.3
			c-0.1,0.7,0.3,1,0.9,1.1l1.5,0.3l-0.2,0.9L-69.5,386.5z"/>
		<path d="M-66.9,383.7c0.6,0.1,0.9-0.1,1-0.7c0.1-0.4-0.1-0.7-0.3-0.8l0.2-0.8c0.7,0.4,1,1,0.8,1.8c-0.2,1.1-1.1,1.6-2.1,1.4
			c-1-0.2-1.6-1.1-1.4-2.1c0.2-1.1,1.3-1.5,2.3-1.2L-66.9,383.7z M-67.2,382c-0.5,0-0.8,0.1-0.9,0.6c-0.1,0.6,0.3,0.8,0.6,0.9
			L-67.2,382z"/>
	</g>
</g>
<g id="category6">
	<g>
		<path class="st0" d="M-112.1,467.7c-18.7-6.8-35.9-16.8-51.3-29.6l-0.4-0.3l111.4-132.9l-59.3,163L-112.1,467.7z"/>
		<path class="st1" d="M-53.7,307.3l-58.2,159.9c-18.8-6.9-36-16.9-51.1-29.6L-53.7,307.3 M-50.8,302.3l-3.6,4.3L-163.8,437
			l-0.6,0.8l0.8,0.6c15.4,12.9,32.7,22.9,51.4,29.7l0.9,0.3l0.3-0.9l58.2-159.9L-50.8,302.3L-50.8,302.3z"/>
	</g>
	<path class="st12" d="M-109.7,462.1l0-0.1c-18.2-6.6-34.8-16.2-49.3-28.4l-3.7,4.5c15,12.5,32.2,22.6,50.9,29.5L-109.7,462.1z"/>
	<path class="st12" d="M-72.8,360.6c-6.2-2.3-11.8-5.6-16.8-9.7l-4.9,5.9c5.6,4.7,12.1,8.5,19.1,11L-72.8,360.6z"/>
	<g>
		<path d="M-111.9,405.7l0.4-0.9l4.3,2l-0.4,0.9L-111.9,405.7z"/>
		<path d="M-109.9,404.6l0.4-0.8l0.4,0.2l0,0c-0.2-0.4-0.2-0.8-0.1-1.2c0.4-0.9,1-0.9,1.8-0.5l1.9,0.9l-0.4,0.9l-1.8-0.8
			c-0.5-0.2-0.8-0.2-1,0.2c-0.2,0.5,0,0.8,0.6,1.1l1.6,0.8l-0.4,0.9L-109.9,404.6z"/>
		<path d="M-107.6,401.1l-0.2,0.5l-0.6-0.3l0.2-0.5l-0.2-0.1c-0.5-0.3-0.8-0.8-0.5-1.5c0.1-0.2,0.2-0.3,0.2-0.4l0.6,0.3
			c-0.1,0.1-0.1,0.2-0.2,0.3c-0.1,0.2-0.1,0.4,0.2,0.5l0.2,0.1l0.3-0.6l0.6,0.3l-0.3,0.6l2.5,1.2l-0.4,0.9L-107.6,401.1z"/>
		<path d="M-106.7,397.4c0.5-1,1.4-1.3,2.4-0.9c1,0.5,1.3,1.4,0.9,2.4c-0.5,1-1.4,1.3-2.4,0.8C-106.8,399.4-107.2,398.4-106.7,397.4
			z M-104.1,398.7c0.3-0.6-0.1-1-0.6-1.2s-1.1-0.3-1.4,0.3c-0.3,0.6,0.1,1,0.7,1.2C-104.9,399.2-104.4,399.2-104.1,398.7z"/>
		<path d="M-105.6,395.3l0.4-0.8l0.6,0.3l0,0c-0.3-0.3-0.4-0.9-0.2-1.3c0-0.1,0.1-0.1,0.1-0.2l0.8,0.4c-0.1,0.1-0.1,0.2-0.2,0.3
			c-0.3,0.6,0.1,1.1,0.6,1.3l1.4,0.7l-0.4,0.9L-105.6,395.3z"/>
		<path d="M-104.5,392.9l0.4-0.8l0.4,0.2l0,0c-0.2-0.4-0.3-0.8-0.1-1.2c0.2-0.4,0.5-0.7,0.9-0.7c-0.2-0.3-0.3-0.7-0.1-1.2
			c0.3-0.7,0.8-1,1.6-0.6l2.1,1l-0.4,0.9l-1.8-0.8c-0.4-0.2-0.8-0.3-1,0.2s0.1,0.8,0.5,0.9l1.7,0.8l-0.4,0.9l-1.8-0.8
			c-0.4-0.2-0.8-0.4-1,0.2c-0.1,0.2-0.2,0.6,0.4,0.9l1.8,0.8l-0.4,0.9L-104.5,392.9z"/>
		<path d="M-101.1,388c-0.8-0.4-0.7-1.2-0.4-2c0.3-0.6,0.8-1.3,1.5-1l1.6,0.8c0.3,0.1,0.6,0.2,0.7,0.2l-0.4,0.9
			c-0.1,0-0.2,0-0.3-0.1c0.2,0.4,0.1,0.8-0.1,1.2c-0.3,0.6-0.8,0.9-1.4,0.6c-0.7-0.3-0.6-0.9-0.5-1.5c0.2-0.6,0.4-1,0.1-1.2
			c-0.4-0.2-0.5,0.1-0.7,0.4s-0.1,0.6,0.2,0.8L-101.1,388z M-99.5,386.3c0.1,0.2-0.1,0.5-0.1,0.8c-0.1,0.3-0.1,0.6,0.2,0.7
			c0.3,0.1,0.5-0.1,0.6-0.3c0.3-0.7-0.2-0.9-0.4-1L-99.5,386.3z"/>
		<path d="M-99.9,382.9l0.3-0.6l0.6,0.3l-0.3,0.6l1.5,0.7c0.3,0.1,0.4,0.1,0.5-0.2c0-0.1,0.1-0.2,0.1-0.3l0.7,0.3
			c0,0.2-0.1,0.3-0.2,0.5c-0.2,0.5-0.6,0.9-1.2,0.6l-1.8-0.9l-0.2,0.5l-0.6-0.3l0.2-0.5l-0.9-0.4l0.4-0.9L-99.9,382.9z"/>
		<path d="M-99.5,380.8l-0.4,0.9l-0.7-0.3l0.4-0.9L-99.5,380.8z M-99.4,381.9l0.4-0.9l3.1,1.4l-0.4,0.9L-99.4,381.9z"/>
		<path d="M-98.1,378.8c0.5-1,1.4-1.3,2.4-0.9c1,0.5,1.3,1.4,0.9,2.4c-0.5,1-1.4,1.3-2.4,0.8C-98.2,380.7-98.5,379.8-98.1,378.8z
			 M-95.4,380c0.3-0.6-0.1-1-0.6-1.2c-0.5-0.2-1.1-0.3-1.4,0.3s0.2,1,0.7,1.2C-96.3,380.5-95.7,380.6-95.4,380z"/>
		<path d="M-97,376.6l0.4-0.8l0.4,0.2l0,0c-0.2-0.4-0.2-0.8-0.1-1.2c0.4-0.9,1-0.9,1.8-0.5l1.9,0.9l-0.4,0.9l-1.8-0.8
			c-0.5-0.2-0.8-0.2-1,0.2c-0.2,0.5,0,0.8,0.6,1.1l1.6,0.8l-0.4,0.9L-97,376.6z"/>
		<path d="M-103.2,408.1l-0.6,1.3l-0.8-0.4l1.6-3.5l0.8,0.4l-0.6,1.3l3.5,1.6l-0.4,0.9L-103.2,408.1z"/>
		<path d="M-99.8,406.4c0.6,0.2,0.9,0.1,1.1-0.4c0.2-0.3,0.1-0.7-0.1-0.9l0.4-0.8c0.6,0.6,0.7,1.2,0.4,1.9c-0.5,1-1.4,1.3-2.4,0.8
			c-0.9-0.4-1.3-1.4-0.9-2.4c0.5-1.1,1.6-1.2,2.6-0.7L-99.8,406.4z M-99.7,404.8c-0.5-0.1-0.8,0-1,0.4c-0.3,0.5,0.1,0.9,0.3,1
			L-99.7,404.8z"/>
		<path d="M-98.2,401.2c-0.4-0.1-0.7,0-0.8,0.4c-0.3,0.5,0.2,1,0.7,1.2c0.4,0.2,1.1,0.3,1.3-0.3c0.2-0.4,0-0.7-0.3-1l0.4-0.8
			c0.8,0.5,1,1.3,0.6,2.1c-0.4,0.9-1.4,1.3-2.3,0.8c-1-0.5-1.4-1.4-1-2.4c0.3-0.7,1-1.2,1.9-0.9L-98.2,401.2z"/>
		<path d="M-99.9,398.8l0.4-0.9l1.6,0.8l0,0c-0.2-0.4-0.2-0.8-0.1-1.2c0.4-0.9,1-0.9,1.8-0.5l1.9,0.9l-0.4,0.9l-1.8-0.8
			c-0.5-0.2-0.8-0.2-1,0.2c-0.2,0.5,0,0.8,0.6,1.1l1.6,0.8l-0.4,0.9L-99.9,398.8z"/>
		<path d="M-97,395.8l0.4-0.8l0.4,0.2l0,0c-0.2-0.4-0.2-0.8-0.1-1.2c0.4-0.9,1-0.9,1.8-0.5l1.9,0.9l-0.4,0.7l-1.8-0.8
			c-0.5-0.2-0.8-0.2-1,0.2c-0.2,0.5,0,0.8,0.6,1.1l1.6,0.8l-0.4,0.9L-97,395.8z"/>
		<path d="M-94.8,390.6c0.5-1,1.4-1.3,2.4-0.9c1,0.5,1.3,1.4,0.9,2.4c-0.5,1-1.4,1.3-2.4,0.9C-94.9,392.5-95.2,391.6-94.8,390.6z
			 M-92.1,391.9c0.3-0.6-0.1-1-0.6-1.2s-1.1-0.3-1.4,0.3c-0.3,0.6,0.2,1,0.7,1.2C-93,392.4-92.4,392.4-92.1,391.9z"/>
		<path d="M-94.8,387.9l0.4-0.9l4.3,2l-0.4,0.9L-94.8,387.9z"/>
		<path d="M-92.3,385.4c0.5-1,1.4-1.3,2.4-0.9c1,0.5,1.3,1.4,0.9,2.4c-0.5,1-1.4,1.3-2.4,0.8C-92.4,387.3-92.8,386.4-92.3,385.4z
			 M-89.7,386.6c0.3-0.6-0.1-1-0.6-1.2c-0.5-0.2-1.1-0.3-1.4,0.3c-0.3,0.6,0.1,1,0.7,1.2C-90.5,387.1-90,387.2-89.7,386.6z"/>
		<path d="M-86.9,381.6c0.5,0.2,1.3,0.8,0.6,2.3c-0.3,0.6-0.9,1.2-1.6,0.9l0.4-0.9c0.4,0.1,0.6-0.1,0.7-0.4c0.2-0.5,0-0.8-0.5-1
			l-0.4-0.2l0,0c0.2,0.3,0.2,0.8,0,1.2c-0.4,0.9-1.3,1-2.2,0.6c-0.8-0.4-1.3-1.2-0.9-2.1c0.2-0.4,0.5-0.7,0.9-0.7l0,0l-0.4-0.2
			l0.4-0.8L-86.9,381.6z M-88.7,381.8c-0.5-0.2-1-0.3-1.3,0.3c-0.2,0.5,0.1,0.9,0.6,1.1c0.4,0.2,1,0.3,1.3-0.3
			C-88,382.4-88.3,382-88.7,381.8z"/>
		<path d="M-85.3,379.6c0.4,0.4,0.5,0.8,0.2,1.4c-0.1,0.2-0.2,0.3-0.3,0.5l-0.7-0.3c0.1-0.2,0.2-0.3,0.3-0.5
			c0.1-0.3-0.2-0.5-0.4-0.6l-3.4-0.3l0.4-0.9l2.5,0.3l0,0l-1.8-1.7l0.4-0.9L-85.3,379.6z"/>
	</g>
</g>
<g id="category7">
	<g>
		<path class="st0" d="M-163.5,437.9c-15.4-13-28.2-28.2-38.1-45.4l-0.2-0.4l150.3-86.7l-111.5,132.9L-163.5,437.9z"/>
		<path class="st1" d="M-53.8,307.2l-109.4,130.3c-15.1-12.7-28-28-38-45.3L-53.8,307.2 M-49.4,303.5l-4.9,2.8l-147.4,85.1l-0.9,0.5
			l0.5,0.9c9.9,17.2,22.8,32.5,38.2,45.5l0.8,0.6l0.6-0.8l109.4-130.3L-49.4,303.5L-49.4,303.5z"/>
	</g>
	<path class="st13" d="M-196.1,389.9l-4.9,2.8c10,17.1,22.8,32.5,37.9,45.1l3.7-4.5C-174,421.2-186.5,406.4-196.1,389.9z"/>
	<path class="st13" d="M-102.4,335.8l-6.7,3.8c3.7,6.4,8.6,12.1,14.2,16.9l4.9-5.9C-94.9,346.4-99.1,341.4-102.4,335.8z"/>
	<g>
		<path d="M-136,364.8l0.8-0.7l3,3.7l-0.8,0.7L-136,364.8z"/>
		<path d="M-133.7,364.6l0.7-0.6l0.3,0.4l0,0c-0.1-0.5,0.1-0.9,0.5-1.1c0.8-0.6,1.3-0.3,1.9,0.3l1.3,1.6l-0.7,0.6l-1.2-1.5
			c-0.4-0.4-0.7-0.6-1-0.3c-0.4,0.3-0.4,0.7,0,1.2l1.1,1.4l-0.7,0.6L-133.7,364.6z"/>
		<path d="M-129.9,363.1l1.6-1.3l0.5,0.6l-1.6,1.3L-129.9,363.1z"/>
		<path d="M-126.7,361.4c0.4,0.5,0.9,0.4,1.4,0c0.3-0.2,0.7-0.7,0.3-1c-0.3-0.4-0.9,0-1.6,0.3s-1.4,0.5-2-0.2
			c-0.6-0.8-0.2-1.7,0.5-2.2c0.8-0.6,1.8-0.9,2.4,0l-0.8,0.6c-0.4-0.4-0.8-0.3-1.2,0c-0.3,0.2-0.5,0.6-0.2,0.9
			c0.2,0.3,0.4,0.2,1.6-0.3c0.3-0.2,1.3-0.6,2,0.2c0.5,0.7,0.4,1.6-0.6,2.4c-0.8,0.7-1.9,0.9-2.6,0L-126.7,361.4z"/>
		<path d="M-124.2,357l0.5-0.4l0.4,0.5l-0.5,0.4l1.1,1.3c0.2,0.2,0.3,0.3,0.6,0.1c0.1-0.1,0.1-0.1,0.2-0.2l0.5,0.6
			c-0.1,0.1-0.3,0.3-0.4,0.4c-0.5,0.4-0.9,0.6-1.4,0l-1.3-1.6l-0.4,0.4l-0.4-0.5l0.4-0.4l-0.6-0.8l0.7-0.6L-124.2,357z"/>
		<path d="M-122.1,355.1c0.8-0.7,1.8-0.6,2.5,0.3c0.7,0.8,0.6,1.8-0.3,2.5c-0.8,0.7-1.8,0.6-2.5-0.3
			C-123,356.8-122.9,355.8-122.1,355.1z M-120.3,357.4c0.5-0.4,0.3-1,0-1.4c-0.3-0.4-0.8-0.7-1.3-0.3s-0.3,1,0,1.4
			S-120.8,357.8-120.3,357.4z"/>
		<path d="M-120.2,353.7l0.7-0.6l0.4,0.5l0,0c-0.1-0.4,0-1,0.4-1.3c0.1,0,0.1-0.1,0.2-0.1l0.6,0.7c-0.1,0-0.2,0.1-0.3,0.2
			c-0.5,0.4-0.4,1,0,1.4l1,1.2l-0.7,0.6L-120.2,353.7z"/>
		<path d="M-116.4,353.2c0.4,0.4,0.8,0.5,1.2,0.1c0.3-0.2,0.4-0.6,0.3-0.8l0.6-0.5c0.3,0.8,0.1,1.4-0.5,1.9
			c-0.8,0.7-1.8,0.5-2.5-0.3c-0.6-0.8-0.6-1.9,0.2-2.5c0.9-0.7,2-0.3,2.6,0.5L-116.4,353.2z M-115.6,351.7c-0.4-0.3-0.7-0.4-1-0.1
			c-0.5,0.4-0.3,0.8-0.2,1.1L-115.6,351.7z"/>
		<path d="M-132.5,372.2l0.8-0.7l4.4,2.6l-0.8,0.7l-0.9-0.6l-1.4,1.1l0.4,1.1l-1,0.7L-132.5,372.2z M-130.8,374.6l1-0.8l-1.6-1l0,0
			L-130.8,374.6z"/>
		<path d="M-129.3,371.3l0.7-0.6l0.3,0.4l0,0c-0.1-0.5,0.1-0.9,0.5-1.1c0.8-0.6,1.3-0.3,1.9,0.3l1.3,1.6l-0.7,0.6l-1.2-1.5
			c-0.4-0.4-0.7-0.6-1-0.3c-0.4,0.3-0.4,0.7,0,1.2l1.1,1.4l-0.7,0.6L-129.3,371.3z"/>
		<path d="M-125.6,369.6c-0.5-0.7-0.1-1.4,0.5-1.9c0.5-0.4,1.3-0.8,1.8-0.2l1.1,1.4c0.2,0.2,0.4,0.5,0.6,0.5l-0.7,0.6
			c-0.1-0.1-0.2-0.1-0.3-0.2c0,0.4-0.3,0.8-0.6,1.1c-0.5,0.4-1.1,0.5-1.6-0.1s-0.1-1.1,0.3-1.5s0.8-0.8,0.6-1.1
			c-0.3-0.3-0.5-0.2-0.8,0s-0.4,0.5-0.2,0.8L-125.6,369.6z M-123.4,368.8c0,0.2-0.3,0.4-0.5,0.6c-0.2,0.2-0.3,0.5-0.1,0.7
			c0.2,0.3,0.5,0.2,0.7,0c0.6-0.5,0.2-0.9,0.1-1.1L-123.4,368.8z"/>
		<path d="M-124,365.4l0.7-0.6l3,3.7l-0.7,0.6L-124,365.4z"/>
		<path d="M-118.1,367.3c0.2,0.6,0.1,0.9-0.4,1.3c-0.2,0.1-0.3,0.2-0.5,0.3l-0.5-0.6c0.1-0.1,0.3-0.2,0.5-0.3
			c0.2-0.2,0.1-0.6-0.2-0.7l-3-1.8l0.8-0.6l2.1,1.3l0,0l-0.9-2.3l0.8-0.6L-118.1,367.3z"/>
		<path d="M-118.3,362.4l0.5-0.4l0.4,0.5l-0.5,0.4l1.1,1.3c0.2,0.2,0.3,0.3,0.6,0.1c0.1-0.1,0.1-0.1,0.2-0.2l0.5,0.6
			c-0.1,0.1-0.3,0.3-0.4,0.4c-0.5,0.4-0.9,0.6-1.4,0l-1.3-1.6l-0.4,0.4l-0.4-0.5l0.4-0.4l-0.6-0.8l0.7-0.6L-118.3,362.4z"/>
		<path d="M-116.9,360.7l-0.7,0.6l-0.5-0.6l0.7-0.6L-116.9,360.7z M-117.3,361.7l0.7-0.6l2.2,2.7l-0.7,0.6L-117.3,361.7z"/>
		<path d="M-113.4,360.1c-0.3-0.3-0.6-0.3-0.9,0c-0.5,0.4-0.2,1,0.1,1.4c0.3,0.4,0.8,0.7,1.3,0.4c0.3-0.3,0.4-0.7,0.1-1l0.7-0.6
			c0.5,0.8,0.3,1.6-0.4,2.1c-0.8,0.7-1.8,0.5-2.5-0.3c-0.7-0.8-0.7-1.9,0.2-2.6c0.6-0.5,1.5-0.6,2.1,0L-113.4,360.1z"/>
		<path d="M-111,359.5c0.3,0.3,0.6,0.2,0.9,0c0.2-0.2,0.4-0.5,0.2-0.7c-0.2-0.2-0.5-0.1-1.2,0.3c-0.5,0.2-1,0.4-1.4,0
			c-0.6-0.7-0.1-1.3,0.5-1.8s1.3-0.7,1.9-0.1l-0.7,0.6c-0.2-0.3-0.5-0.2-0.8,0c-0.2,0.1-0.4,0.4-0.2,0.6c0.2,0.3,0.7,0,1.2-0.3
			c0.5-0.2,1.1-0.4,1.5,0.1c0.6,0.7,0.1,1.4-0.5,1.9s-1.4,0.8-2,0.1L-111,359.5z"/>
	</g>
</g>
<g id="category8">
	<g>
		<path class="st0" d="M-201.6,392.3c-10-17.4-16.9-36.2-20.3-55.7l-0.1-0.5L-51.2,306l-150.2,86.7L-201.6,392.3z"/>
		<path class="st1" d="M-53.9,307l-147.3,85.1c-9.7-16.9-16.7-35.6-20.2-55.5L-53.9,307 M-48.5,305l-5.6,1l-167.5,29.6l-1,0.2l0.2,1
			c3.4,19.6,10.3,38.4,20.3,55.8l0.5,0.9l0.9-0.5l147.3-85.1L-48.5,305L-48.5,305z"/>
	</g>
	<path class="st14" d="M-221.4,337c3.5,19.8,10.5,38.5,20.1,55.4l4.9-2.8c-9.3-16.4-16.1-34.4-19.5-53.5L-221.4,337z"/>
	<path class="st14" d="M-109.3,317.2l-7.6,1.3c1.3,7.4,3.9,14.4,7.6,20.7l6.7-3.8C-105.8,329.9-108.1,323.7-109.3,317.2z"/>
	<g>
		<path d="M-151.1,332.6l1-0.3l1.2,4.6l-1,0.3L-151.1,332.6z"/>
		<path d="M-148.9,333.3l0.9-0.2l0.1,0.5l0,0c0.1-0.4,0.5-0.7,0.9-0.8c1-0.3,1.4,0.2,1.6,1l0.5,2l-0.9,0.2l-0.5-1.9
			c-0.1-0.5-0.4-0.8-0.8-0.7c-0.5,0.1-0.6,0.5-0.5,1.1l0.5,1.7l-0.9,0.2L-148.9,333.3z"/>
		<path d="M-144.8,333.5l1.9-0.5l0.2,0.8l-1.9,0.5L-144.8,333.5z"/>
		<path d="M-141.2,333.2c0.2,0.6,0.7,0.7,1.2,0.6c0.4-0.1,0.9-0.3,0.7-0.8c-0.1-0.5-0.8-0.4-1.6-0.4c-0.7,0-1.5-0.1-1.7-0.9
			c-0.3-0.9,0.5-1.6,1.3-1.8c1-0.3,2-0.1,2.2,1l-1,0.3c-0.2-0.5-0.6-0.6-1.1-0.5c-0.3,0.1-0.7,0.3-0.6,0.7c0.1,0.4,0.3,0.3,1.6,0.3
			c0.4,0,1.4-0.1,1.7,1c0.2,0.8-0.3,1.6-1.5,2c-1,0.3-2.1,0-2.4-1.1L-141.2,333.2z"/>
		<path d="M-137.2,330.2l0.7-0.2l0.2,0.6l-0.7,0.2l0.4,1.6c0.1,0.3,0.2,0.4,0.5,0.3c0.1,0,0.2-0.1,0.3-0.1l0.2,0.7
			c-0.1,0.1-0.3,0.1-0.5,0.2c-0.6,0.2-1.1,0.2-1.3-0.5l-0.5-2l-0.6,0.1l-0.2-0.6l0.6-0.1l-0.3-1l0.9-0.2L-137.2,330.2z"/>
		<path d="M-134.5,329.4c1-0.3,1.9,0.2,2.2,1.3s-0.2,1.9-1.3,2.2c-1,0.3-1.9-0.2-2.2-1.3C-136,330.5-135.5,329.6-134.5,329.4z
			 M-133.7,332.2c0.6-0.2,0.7-0.8,0.5-1.3c-0.1-0.5-0.5-1-1.1-0.8c-0.6,0.2-0.7,0.8-0.5,1.3C-134.7,331.8-134.3,332.3-133.7,332.2z"
			/>
		<path d="M-132.1,328.8l0.9-0.2l0.2,0.6l0,0c0.1-0.5,0.4-0.9,0.9-1c0.1,0,0.1,0,0.2,0l0.2,0.8c-0.1,0-0.2,0-0.3,0.1
			c-0.7,0.2-0.8,0.7-0.6,1.3l0.4,1.5l-0.9,0.2L-132.1,328.8z"/>
		<path d="M-128.5,329.9c0.2,0.6,0.5,0.8,1,0.6c0.4-0.1,0.6-0.4,0.6-0.6l0.8-0.2c0,0.9-0.5,1.3-1.3,1.5c-1,0.3-1.9-0.3-2.2-1.3
			c-0.3-1,0.2-1.9,1.2-2.2c1.1-0.3,1.9,0.5,2.1,1.5L-128.5,329.9z M-127.2,328.9c-0.2-0.4-0.5-0.6-0.9-0.5c-0.6,0.2-0.6,0.7-0.6,0.9
			L-127.2,328.9z"/>
		<path d="M-158.5,342.8l3.4-0.9l0.2,0.8l-2.4,0.7l0.3,1l2.2-0.6l0.2,0.8l-2.2,0.6l0.3,1.1l2.5-0.7l0.2,0.8l-3.5,0.9L-158.5,342.8z"
			/>
		<path d="M-152.8,344.3l-1.5-1.3l1-0.3l0.8,0.7l0.3-1l1-0.3l-0.7,1.8l1.7,1.4l-1,0.3l-1-0.9l-0.4,1.2l-1,0.3L-152.8,344.3z"/>
		<path d="M-150.6,342.1l0.9-0.2l0.1,0.4l0,0c0.1-0.4,0.4-0.7,0.9-0.8c1-0.3,1.7,0.4,2,1.4c0.2,0.9,0,1.8-1,2.1
			c-0.4,0.1-0.8,0-1.1-0.2l0,0l0.4,1.6l-0.9,0.2L-150.6,342.1z M-147.7,343.1c-0.1-0.5-0.5-1-1.1-0.9c-0.6,0.2-0.6,0.7-0.5,1.3
			c0.1,0.5,0.5,1,1.1,0.8C-147.6,344.2-147.6,343.6-147.7,343.1z"/>
		<path d="M-145.5,342.7c0.2,0.6,0.5,0.8,1,0.6c0.4-0.1,0.6-0.4,0.6-0.6l0.8-0.2c0,0.9-0.5,1.3-1.3,1.5c-1,0.3-1.9-0.3-2.2-1.3
			c-0.3-1,0.2-1.9,1.2-2.2c1.1-0.3,1.9,0.5,2.1,1.5L-145.5,342.7z M-144.1,341.7c-0.2-0.4-0.5-0.6-0.9-0.5c-0.6,0.2-0.6,0.6-0.6,0.9
			L-144.1,341.7z"/>
		<path d="M-143,340l0.9-0.2l0.2,0.6l0,0c0.1-0.5,0.4-0.9,0.9-1c0.1,0,0.1,0,0.2,0l0.2,0.8c-0.1,0-0.2,0-0.3,0.1
			c-0.7,0.2-0.8,0.7-0.6,1.3l0.4,1.5l-0.9,0.2L-143,340z"/>
		<path d="M-139.7,338.6l-0.9,0.2l-0.2-0.8l0.9-0.2L-139.7,338.6z M-140.5,339.3l0.9-0.2l0.9,3.3l-0.9,0.2L-140.5,339.3z"/>
		<path d="M-137.6,340.6c0.2,0.6,0.5,0.8,1,0.6c0.4-0.1,0.6-0.4,0.6-0.6l0.8-0.2c0,0.9-0.5,1.3-1.3,1.5c-1,0.3-1.9-0.3-2.2-1.3
			s0.2-1.9,1.2-2.2c1.1-0.3,1.9,0.5,2.1,1.5L-137.6,340.6z M-136.3,339.6c-0.2-0.4-0.5-0.6-0.9-0.5c-0.6,0.2-0.6,0.7-0.6,0.9
			L-136.3,339.6z"/>
		<path d="M-135.2,337.9l0.9-0.2l0.1,0.5l0,0c0.1-0.4,0.5-0.7,0.9-0.8c1-0.3,1.4,0.2,1.6,1l0.5,2l-0.9,0.2l-0.5-1.9
			c-0.1-0.5-0.4-0.8-0.8-0.7c-0.5,0.1-0.6,0.5-0.5,1.1l0.5,1.7l-0.9,0.2L-135.2,337.9z"/>
		<path d="M-128.8,337.4c-0.2-0.4-0.4-0.5-0.8-0.4c-0.6,0.2-0.6,0.8-0.5,1.3s0.5,1,1,0.8c0.4-0.1,0.6-0.4,0.5-0.9l0.9-0.2
			c0.1,0.9-0.4,1.6-1.2,1.8c-1,0.3-1.9-0.3-2.1-1.3c-0.3-1,0.1-2,1.2-2.3c0.8-0.2,1.6,0,1.9,0.8L-128.8,337.4z"/>
		<path d="M-126.4,337.6c0.2,0.6,0.5,0.8,1,0.6c0.4-0.1,0.6-0.4,0.6-0.6l0.8-0.2c0,0.9-0.5,1.3-1.3,1.5c-1,0.3-1.9-0.3-2.2-1.3
			c-0.3-1,0.2-1.9,1.2-2.2c1.1-0.3,1.9,0.5,2.1,1.5L-126.4,337.6z M-125.1,336.6c-0.2-0.4-0.5-0.6-0.9-0.5c-0.6,0.2-0.6,0.6-0.6,0.9
			L-125.1,336.6z"/>
	</g>
</g>
<g id="category9">
	<g>
		<path class="st0" d="M-222,336.5c-1.7-10-2.6-20-2.6-29.6c0-9.7,0.9-19.7,2.6-29.6l0.1-0.5l170.8,30.1L-221.9,337L-222,336.5z"/>
		<path class="st1" d="M-221.5,277.3L-54,306.9l-167.5,29.6c-1.6-9.6-2.6-19.5-2.6-29.6C-224.1,296.8-223.2,286.9-221.5,277.3
			 M-222.3,276.2l-0.2,1c-1.7,10-2.6,20-2.6,29.7c0,9.7,0.9,19.7,2.6,29.7l0.2,1l1-0.2l167.5-29.6l5.6-1l-5.6-1l-167.5-29.6
			L-222.3,276.2L-222.3,276.2z"/>
	</g>
	<path class="st15" d="M-215.9,278.5l-5.5-1c-1.7,9.7-2.6,19.4-2.6,29.4c0,10,0.9,19.9,2.6,29.4l5.5-1c-1.6-9.2-2.5-18.7-2.5-28.5
		C-218.4,297.2-217.5,287.8-215.9,278.5z"/>
	<path class="st15" d="M-110.2,307c0-3.3,0.3-6.5,0.8-9.7l-7.6-1.3c-0.6,3.6-1,7.3-1,11s0.3,7.4,1,11l7.6-1.3
		C-109.9,313.5-110.2,310.3-110.2,307z"/>
	<g>
		<path d="M-158.1,303.5h1v3.9h2.3v0.9h-3.4L-158.1,303.5z"/>
		<path d="M-152.6,304.8c1.1,0,1.8,0.7,1.8,1.8s-0.7,1.8-1.8,1.8c-1.1,0-1.8-0.7-1.8-1.8S-153.7,304.8-152.6,304.8z M-152.7,307.7
			c0.6,0,0.8-0.5,0.9-1.1c0-0.6-0.2-1.1-0.8-1.1c-0.6,0-0.8,0.5-0.8,1.1C-153.5,307.2-153.3,307.7-152.7,307.7z"/>
		<path d="M-147,308.2c0,0.6-0.2,1.5-1.8,1.5c-0.7,0-1.5-0.3-1.5-1.1h0.9c0.1,0.4,0.4,0.5,0.7,0.5c0.5,0,0.8-0.4,0.8-0.8v-0.5l0,0
			c-0.2,0.4-0.6,0.5-1,0.5c-1,0-1.5-0.8-1.5-1.7s0.5-1.7,1.5-1.7c0.5,0,0.8,0.2,1,0.6l0,0V305h0.9V308.2z M-147.8,306.6
			c0-0.6-0.2-1.1-0.8-1.1c-0.5,0-0.8,0.5-0.8,1s0.2,1,0.8,1C-148.1,307.6-147.8,307.1-147.8,306.6z"/>
		<path d="M-146.1,305h0.9v3.4h-0.9V305z M-145.2,304.5h-0.9v-0.8h0.9V304.5z"/>
		<path d="M-143.7,307.3c0,0.4,0.3,0.6,0.7,0.6c0.3,0,0.6-0.1,0.6-0.4s-0.4-0.4-1.1-0.5c-0.5-0.1-1.1-0.3-1.1-0.9
			c0-0.9,0.8-1.1,1.5-1.1c0.8,0,1.4,0.3,1.5,1.1h-0.9c0-0.4-0.3-0.5-0.6-0.5c-0.2,0-0.5,0-0.5,0.3s0.5,0.4,1.1,0.5s1.1,0.3,1.1,1
			c0,0.9-0.8,1.2-1.6,1.2c-0.8,0-1.6-0.3-1.6-1.2L-143.7,307.3z"/>
		<path d="M-139.7,305.1h0.7v0.6h-0.7v1.7c0,0.3,0.1,0.4,0.4,0.4c0.1,0,0.2,0,0.3,0v0.7c-0.2,0-0.4,0-0.6,0c-0.6,0-1.1-0.1-1.1-0.8
			v-2h-0.6v-0.6h0.6v-1h0.9L-139.7,305.1z"/>
		<path d="M-138.5,305.1h0.9v3.4h-0.9V305.1z M-137.5,304.5h-0.9v-0.8h0.9V304.5z"/>
		<path d="M-134.5,306.3c-0.1-0.4-0.3-0.6-0.7-0.6c-0.6,0-0.8,0.6-0.8,1.1s0.2,1.1,0.8,1.1c0.4,0,0.7-0.3,0.8-0.7h0.9
			c-0.1,0.9-0.8,1.4-1.7,1.4c-1,0-1.7-0.8-1.7-1.8c0-1.1,0.7-1.9,1.8-1.8c0.8,0,1.6,0.4,1.6,1.3H-134.5z"/>
		<path d="M-132.3,307.5c0,0.4,0.3,0.6,0.7,0.6c0.3,0,0.6-0.1,0.6-0.4s-0.4-0.4-1.1-0.5c-0.5-0.1-1.1-0.3-1.1-0.9
			c0-0.9,0.8-1.1,1.5-1.1c0.8,0,1.4,0.3,1.5,1.1h-0.9c0-0.4-0.3-0.5-0.6-0.5c-0.2,0-0.5,0-0.5,0.3c0,0.3,0.5,0.4,1.1,0.5
			c0.6,0.1,1.1,0.3,1.1,1c0,0.9-0.8,1.2-1.6,1.2c-0.8,0-1.6-0.3-1.6-1.2L-132.3,307.5z"/>
	</g>
</g>
<g id="category10">
	<g>
		<path class="st0" d="M-222.1,277.5l0.1-0.5c3.4-19.5,10.2-38.3,20.3-55.7l0.2-0.4l150.2,86.7L-222.1,277.5z"/>
		<path class="st1" d="M-201.3,221.6L-54,306.7l-167.5-29.6C-218,257.2-211,238.5-201.3,221.6 M-201.7,220.2l-0.5,0.9
			c-10.1,17.5-16.9,36.3-20.3,55.8l-0.2,1l1,0.2l167.5,29.6l5.6,1l-4.9-2.8l-147.3-85.1L-201.7,220.2L-201.7,220.2z"/>
	</g>
	<path class="st16" d="M-201.2,221.8c-9.7,16.8-16.6,35.5-20.1,55.3l5.5,1c3.3-19.3,10.1-37.3,19.5-53.5L-201.2,221.8z"/>
	<path class="st16" d="M-102.7,278.7l-6.7-3.8c-3.6,6.3-6.2,13.3-7.5,20.7l7.6,1.3C-108.1,290.4-105.9,284.2-102.7,278.7z"/>
	<g>
		<path d="M-138.4,270.6l1,0.3l-1,3.7l2.2,0.6l-0.2,0.8l-3.2-0.9L-138.4,270.6z"/>
		<path d="M-133.4,273.3c1,0.3,1.5,1.2,1.2,2.2c-0.3,1.1-1.2,1.6-2.2,1.3c-1-0.3-1.5-1.2-1.2-2.2
			C-135.3,273.5-134.4,273-133.4,273.3z M-134.2,276.1c0.6,0.2,1-0.3,1.1-0.8c0.1-0.5,0.1-1.1-0.5-1.3c-0.6-0.2-0.9,0.3-1.1,0.8
			C-134.8,275.3-134.8,275.9-134.2,276.1z"/>
		<path d="M-131,276.4c-0.1,0.4,0.2,0.7,0.5,0.8s0.6,0.1,0.7-0.3c0.1-0.3-0.3-0.5-0.9-0.8c-0.5-0.3-1-0.6-0.8-1.2
			c0.2-0.8,1-0.9,1.7-0.7c0.7,0.2,1.3,0.6,1.2,1.5l-0.9-0.2c0.1-0.4-0.2-0.5-0.5-0.6c-0.2-0.1-0.5-0.1-0.6,0.2
			c-0.1,0.3,0.4,0.5,0.9,0.8c0.5,0.3,1,0.6,0.8,1.2c-0.2,0.9-1.1,0.9-1.8,0.7c-0.8-0.2-1.4-0.7-1.2-1.6L-131,276.4z"/>
		<path d="M-127.6,277.4c-0.1,0.4,0.2,0.7,0.5,0.8s0.6,0.1,0.7-0.3c0.1-0.3-0.3-0.5-0.9-0.8c-0.5-0.3-1-0.6-0.8-1.2
			c0.2-0.8,1-0.9,1.7-0.7s1.3,0.6,1.2,1.5l-0.9-0.2c0.1-0.4-0.2-0.5-0.5-0.6c-0.2-0.1-0.5-0.1-0.6,0.2s0.4,0.5,0.9,0.8
			c0.5,0.3,1,0.6,0.8,1.2c-0.2,0.9-1.1,0.9-1.8,0.7c-0.8-0.2-1.4-0.7-1.2-1.6L-127.6,277.4z"/>
		<path d="M-158.7,273.3l2.1,0.6c1.1,0.3,1.4,1.2,1.2,1.9c-0.2,0.7-0.8,1.3-2,1l-1.1-0.3l-0.5,1.6l-1-0.3L-158.7,273.3z
			 M-158.3,275.7l0.8,0.2c0.5,0.1,0.9,0.1,1.1-0.4c0.2-0.6-0.2-0.8-0.7-0.9l-0.8-0.2L-158.3,275.7z"/>
		<path d="M-154.9,275.7l0.9,0.2l-0.2,0.6l0,0c0.3-0.4,0.8-0.5,1.3-0.4c0.1,0,0.1,0.1,0.2,0.1l-0.3,0.9c-0.1,0-0.2-0.1-0.3-0.1
			c-0.7-0.2-1,0.2-1.2,0.8l-0.4,1.5l-0.9-0.3L-154.9,275.7z"/>
		<path d="M-152.3,278.5c-0.1,0.6,0.1,0.9,0.6,1.1c0.4,0.1,0.7,0,0.8-0.2l0.8,0.2c-0.5,0.7-1.1,0.9-1.9,0.7c-1-0.3-1.5-1.2-1.2-2.2
			s1.2-1.6,2.2-1.3c1.1,0.3,1.4,1.4,1.1,2.4L-152.3,278.5z M-150.6,278.3c0-0.5-0.1-0.8-0.5-0.9c-0.6-0.2-0.9,0.2-1,0.5
			L-150.6,278.3z"/>
		<path d="M-147.9,281.2l-1-0.3l-0.2-3.6l1,0.3l0.1,2.5l0,0l1.3-2.1l0.9,0.3L-147.9,281.2z"/>
		<path d="M-145.3,280.4c-0.1,0.6,0.1,0.9,0.6,1.1c0.4,0.1,0.7,0,0.8-0.2l0.8,0.2c-0.5,0.7-1.1,0.9-1.9,0.7c-1-0.3-1.5-1.2-1.2-2.2
			s1.2-1.6,2.2-1.3c1.1,0.3,1.4,1.4,1.1,2.4L-145.3,280.4z M-143.6,280.2c0-0.5-0.1-0.8-0.5-0.9c-0.6-0.2-0.9,0.2-1,0.5
			L-143.6,280.2z"/>
		<path d="M-141.8,279.3l0.9,0.2l-0.1,0.5l0,0c0.3-0.3,0.8-0.4,1.2-0.3c1,0.3,1.1,0.9,0.8,1.7l-0.6,2l-0.9-0.3l0.5-1.9
			c0.2-0.5,0.1-0.9-0.4-1c-0.5-0.1-0.8,0.1-1,0.8l-0.5,1.7l-0.9-0.3L-141.8,279.3z"/>
		<path d="M-136.8,280.7l0.7,0.2l-0.2,0.6l-0.7-0.2l-0.5,1.6c-0.1,0.3,0,0.4,0.3,0.5c0.1,0,0.2,0,0.3,0.1l-0.2,0.7
			c-0.2,0-0.4-0.1-0.5-0.1c-0.6-0.2-1-0.4-0.8-1.1l0.5-2l-0.6-0.2l0.2-0.6l0.6,0.2l0.3-1l0.9,0.3L-136.8,280.7z"/>
		<path d="M-135.7,281l0.9,0.3l-0.9,3.3l-0.9-0.3L-135.7,281z M-134.7,280.8l-0.9-0.3l0.2-0.8l0.9,0.3L-134.7,280.8z"/>
		<path d="M-132.4,281.8c1,0.3,1.5,1.2,1.2,2.2c-0.3,1.1-1.2,1.6-2.2,1.3c-1-0.3-1.5-1.2-1.2-2.2
			C-134.4,282.1-133.5,281.6-132.4,281.8z M-133.2,284.6c0.6,0.2,1-0.3,1.1-0.8c0.1-0.5,0.1-1.1-0.5-1.3c-0.6-0.2-0.9,0.3-1.1,0.8
			C-133.9,283.9-133.8,284.5-133.2,284.6z"/>
		<path d="M-130.2,282.6l0.9,0.2l-0.1,0.5l0,0c0.3-0.3,0.8-0.4,1.2-0.3c1,0.3,1.1,0.9,0.8,1.7l-0.6,2l-0.9-0.3l0.5-1.9
			c0.2-0.5,0.1-0.9-0.4-1s-0.8,0.1-1,0.8l-0.5,1.7l-0.9-0.3L-130.2,282.6z"/>
	</g>
</g>
<g id="category11">
	<g>
		<path class="st0" d="M-201.9,221.6l0.3-0.4c10.1-17.4,23-32.7,38.2-45.4l0.4-0.3l111.4,132.9L-201.9,221.6z"/>
		<path class="st1" d="M-163.1,176.1l109.3,130.3l-147.4-85.1C-191.1,204.2-178.3,188.9-163.1,176.1 M-163,174.7l-0.8,0.6
			c-15.2,12.8-28.1,28.1-38.3,45.5l-0.5,0.9l0.9,0.5l147.4,85.1l4.9,2.8l-3.6-4.3l-109.3-130.3L-163,174.7L-163,174.7z"/>
	</g>
	<path class="st17" d="M-159.4,180.7l-3.7-4.4c-15.1,12.7-28,28-37.9,45.1l4.9,2.8C-186.5,207.7-174,193-159.4,180.7z"/>
	<path class="st17" d="M-90,263.4l-4.9-5.9c-5.6,4.8-10.4,10.5-14.2,16.9l6.7,3.8C-99.2,272.6-94.9,267.6-90,263.4z"/>
	<g>
		<path d="M-123.1,237.9l1.1,1l-1.3,3.2l0,0l2.9-1.8l1.1,1l-3.1,3.6l-0.7-0.6l2.2-2.6l0,0l-3.1,1.8l-0.6-0.5l1.3-3.3l0,0l-2.2,2.5
			l-0.7-0.6L-123.1,237.9z"/>
		<path d="M-118.1,243.7c0.8,0.7,0.9,1.7,0.2,2.5c-0.7,0.8-1.7,0.9-2.5,0.2c-0.8-0.7-0.9-1.7-0.2-2.5
			C-119.9,243.1-118.9,243.1-118.1,243.7z M-120,246c0.5,0.4,1,0.1,1.3-0.3c0.4-0.4,0.6-1,0.1-1.4s-1-0.1-1.3,0.3
			C-120.3,245-120.5,245.6-120,246z"/>
		<path d="M-115.5,244.4l0.7,0.6l-1.1,1.3l0,0c0.4-0.1,0.8,0,1.2,0.3c0.5,0.4,0.7,1.3-0.1,2.3c-0.8,1-1.7,0.9-2.3,0.5
			c-0.4-0.3-0.6-0.7-0.5-1.1l0,0l-0.3,0.3l-0.7-0.6L-115.5,244.4z M-115.4,247c-0.4-0.4-1-0.1-1.3,0.3c-0.4,0.4-0.5,1-0.1,1.4
			s1,0.1,1.3-0.3C-115.2,247.9-115,247.3-115.4,247z"/>
		<path d="M-113.2,248l0.7,0.6l-2.2,2.6l-0.7-0.6L-113.2,248z M-112.2,248.2l-0.7-0.6l0.5-0.6l0.7,0.6L-112.2,248.2z"/>
		<path d="M-111.1,248.1l0.7,0.6l-3.1,3.6l-0.7-0.6L-111.1,248.1z"/>
		<path d="M-111.3,252.2c-0.4,0.5-0.3,0.9,0.1,1.2c0.3,0.2,0.7,0.3,0.9,0.1l0.6,0.5c-0.7,0.4-1.4,0.3-2-0.2
			c-0.8-0.7-0.9-1.7-0.2-2.5c0.7-0.8,1.7-0.9,2.5-0.2c0.9,0.8,0.7,1.9,0,2.6L-111.3,252.2z M-109.7,252.8c0.2-0.4,0.2-0.7-0.1-1
			c-0.5-0.4-0.9-0.1-1.1,0L-109.7,252.8z"/>
		<path d="M-137,236.6l2.7,2.3l-0.6,0.7l-1.9-1.6l-0.7,0.8l1.8,1.5l-0.5,0.6l-1.8-1.5l-0.8,0.9l2,1.7l-0.6,0.7l-2.7-2.3L-137,236.6z
			"/>
		<path d="M-134.6,240.4l0.7,0.6l-0.3,0.4l0,0c0.4-0.1,0.9,0,1.2,0.2c0.8,0.7,0.6,1.2,0,1.9l-1.4,1.6l-0.7-0.6l1.3-1.5
			c0.4-0.4,0.4-0.8,0.1-1c-0.4-0.3-0.7-0.3-1.2,0.3l-1.2,1.4l-0.7-0.6L-134.6,240.4z"/>
		<path d="M-130.7,243.7l0.5,0.4l-0.4,0.5l-0.5-0.4l-1.1,1.3c-0.2,0.2-0.2,0.4,0,0.6c0.1,0.1,0.2,0.1,0.2,0.2l-0.5,0.6
			c-0.1-0.1-0.3-0.2-0.4-0.3c-0.4-0.4-0.7-0.8-0.3-1.3l1.3-1.5l-0.4-0.4l0.4-0.5l0.4,0.4l0.7-0.8l0.7,0.6L-130.7,243.7z"/>
		<path d="M-130.5,246.4c-0.4,0.5-0.3,0.9,0.1,1.2c0.3,0.2,0.7,0.3,0.9,0.1l0.6,0.5c-0.7,0.4-1.4,0.3-2-0.2
			c-0.8-0.7-0.9-1.7-0.2-2.5c0.7-0.8,1.7-0.9,2.5-0.2c0.9,0.8,0.7,1.9,0,2.6L-130.5,246.4z M-128.9,247c0.2-0.4,0.3-0.7-0.1-1
			c-0.5-0.4-0.9-0.1-1.1,0L-128.9,247z"/>
		<path d="M-126.9,246.9l0.7,0.6l-0.4,0.5l0,0c0.4-0.2,1-0.1,1.3,0.2c0.1,0,0.1,0.1,0.1,0.2l-0.6,0.7c-0.1-0.1-0.2-0.2-0.2-0.2
			c-0.5-0.4-1-0.2-1.4,0.2l-1,1.2l-0.7-0.6L-126.9,246.9z"/>
		<path d="M-124.9,248.6l0.7,0.6l-0.3,0.3l0,0c0.4-0.1,0.8,0,1.1,0.3c0.8,0.7,0.6,1.7,0,2.4c-0.6,0.7-1.5,1-2.3,0.4
			c-0.3-0.3-0.5-0.7-0.5-1.1l0,0l-1.1,1.2l-0.7-0.6L-124.9,248.6z M-124.1,251.6c0.4-0.4,0.6-1,0.1-1.4c-0.5-0.4-1-0.1-1.3,0.3
			c-0.4,0.4-0.5,1-0.1,1.4C-124.9,252.3-124.4,252-124.1,251.6z"/>
		<path d="M-121.8,251.2l0.7,0.6l-0.4,0.5l0,0c0.4-0.2,1-0.1,1.3,0.2c0,0,0.1,0.1,0.1,0.2l-0.6,0.7c-0.1-0.1-0.2-0.2-0.2-0.2
			c-0.5-0.4-1-0.2-1.4,0.2l-1,1.2l-0.7-0.6L-121.8,251.2z"/>
		<path d="M-119.8,252.9l0.7,0.6l-2.2,2.6l-0.7-0.6L-119.8,252.9z M-118.7,253.1l-0.7-0.6l0.5-0.6l0.7,0.6L-118.7,253.1z"/>
		<path d="M-119.5,256.3c-0.3,0.3-0.1,0.7,0.2,0.9c0.2,0.2,0.5,0.3,0.8,0.1c0.2-0.2-0.1-0.5-0.5-1.1c-0.3-0.4-0.6-0.9-0.2-1.4
			c0.6-0.7,1.3-0.4,1.9,0.1s0.9,1.1,0.4,1.8l-0.7-0.6c0.2-0.3,0.1-0.6-0.2-0.8c-0.2-0.1-0.4-0.3-0.6-0.1c-0.2,0.3,0.2,0.6,0.5,1.1
			c0.3,0.5,0.6,1,0.2,1.4c-0.6,0.7-1.4,0.4-2-0.1s-1-1.2-0.4-2L-119.5,256.3z"/>
		<path d="M-116.5,258.3c-0.4,0.5-0.3,0.9,0.1,1.2c0.3,0.2,0.7,0.3,0.9,0.1l0.6,0.5c-0.7,0.4-1.4,0.3-2-0.2
			c-0.8-0.7-0.9-1.7-0.2-2.5c0.7-0.8,1.7-0.9,2.5-0.2c0.9,0.8,0.7,1.9,0,2.6L-116.5,258.3z M-114.9,258.9c0.2-0.4,0.2-0.7-0.1-1
			c-0.5-0.4-0.9-0.1-1.1,0L-114.9,258.9z"/>
	</g>
</g>
<g id="category12">
	<g>
		<path class="st0" d="M-163.7,176l0.4-0.3c15.3-12.8,32.6-22.8,51.3-29.6l0.5-0.2l59.3,162.9L-163.7,176z"/>
		<path class="st1" d="M-111.9,146.5l58.2,159.8L-163,176C-147.9,163.4-130.7,153.4-111.9,146.5 M-111.3,145.2l-0.9,0.3
			c-18.7,6.9-36,16.9-51.4,29.7l-0.8,0.6l0.6,0.8l109.3,130.2l3.6,4.3l-1.9-5.3L-111,146.1L-111.3,145.2L-111.3,145.2z"/>
	</g>
	<path class="st18" d="M-111.7,146.5c-18.7,6.9-36,16.9-51,29.5l3.7,4.5c14.6-12.2,31.2-21.8,49.3-28.3L-111.7,146.5z"/>
	<path class="st18" d="M-72.8,253.4l-2.6-7.2c-7,2.6-13.5,6.3-19.1,11.1l4.9,5.9C-84.7,259-79,255.7-72.8,253.4z"/>
	<g>
		<path d="M-109.6,205l0.7,1.3l-2.3,2.6l0,0l3.3-0.7l0.7,1.3l-4.1,2.4l-0.5-0.8l2.9-1.7l0,0l-3.5,0.7l-0.4-0.7l2.3-2.7l0,0l-2.9,1.7
			l-0.5-0.8L-109.6,205z"/>
		<path d="M-109.1,215.3l-0.5-0.8l0.4-0.2l0,0c-0.5,0-0.8-0.3-1-0.6c-0.5-0.9-0.1-1.4,0.6-1.8l1.8-1.1l0.5,0.8l-1.7,1
			c-0.5,0.3-0.6,0.6-0.4,1c0.3,0.4,0.6,0.5,1.2,0.1l1.6-0.9l0.5,0.8L-109.1,215.3z"/>
		<path d="M-104.6,213.5l0.5,0.8l-4.1,2.4l-0.5-0.8L-104.6,213.5z"/>
		<path d="M-104.3,216.7l0.4,0.6l-0.5,0.3l-0.4-0.6l-1.5,0.9c-0.3,0.2-0.3,0.3-0.1,0.5c0,0.1,0.1,0.2,0.2,0.2l-0.6,0.4
			c-0.1-0.1-0.2-0.3-0.3-0.5c-0.3-0.5-0.4-1,0.2-1.3l1.8-1l-0.3-0.5l0.5-0.3l0.3,0.5l0.9-0.5l0.5,0.8L-104.3,216.7z"/>
		<path d="M-103.7,217.7l0.5,0.8l-3,1.7l-0.5-0.8L-103.7,217.7z M-102.8,218.3l-0.5-0.8l0.7-0.4l0.5,0.8L-102.8,218.3z"/>
		<path d="M-102.7,221.8c0.3-0.2,0.4-0.6,0.2-0.9c-0.3-0.5-0.9-0.4-1.4-0.1c-0.4,0.2-0.8,0.7-0.5,1.2c0.2,0.4,0.6,0.5,1,0.3l0.4,0.8
			c-0.8,0.4-1.6,0.1-2.1-0.7c-0.5-0.9-0.2-1.9,0.6-2.4c0.9-0.5,1.9-0.4,2.5,0.6c0.4,0.7,0.4,1.6-0.3,2.1L-102.7,221.8z"/>
		<path d="M-99.8,221.8l0.5,0.8l-1.5,0.9l0,0c0.5,0,0.8,0.3,1,0.6c0.5,0.9,0.1,1.4-0.6,1.8l-1.8,1.1l-0.5-0.8l1.7-1
			c0.5-0.3,0.6-0.6,0.4-0.9c-0.3-0.4-0.6-0.5-1.2-0.1l-1.6,0.9l-0.5-0.8L-99.8,221.8z"/>
		<path d="M-99.8,226.4c0.8-0.4,1.4,0.1,1.8,0.8c0.3,0.6,0.6,1.4-0.1,1.8l-1.5,0.9c-0.3,0.2-0.5,0.3-0.6,0.5l-0.5-0.8
			c0.1-0.1,0.2-0.2,0.3-0.2c-0.4-0.1-0.7-0.4-1-0.8c-0.3-0.6-0.3-1.2,0.3-1.5c0.7-0.4,1.1,0,1.5,0.5s0.6,0.9,1,0.7
			c0.3-0.2,0.3-0.5,0.1-0.8c-0.2-0.3-0.4-0.4-0.8-0.3L-99.8,226.4z M-99.3,228.6c-0.2-0.1-0.4-0.3-0.6-0.6c-0.2-0.2-0.4-0.4-0.7-0.2
			c-0.3,0.2-0.2,0.5-0.1,0.7c0.4,0.6,0.9,0.4,1.1,0.3L-99.3,228.6z"/>
		<path d="M-97,229.2l0.5,0.8l-0.4,0.2l0,0c0.5,0,0.8,0.3,1,0.6c0.5,0.9,0.1,1.4-0.6,1.8l-1.8,1.1l-0.5-0.8l1.7-1
			c0.5-0.3,0.6-0.6,0.4-0.9c-0.3-0.4-0.6-0.5-1.2-0.1l-1.6,0.9l-0.5-0.8L-97,229.2z"/>
		<path d="M-95,232.6l0.5,0.8l-0.4,0.2l0,0c0.5,0,0.8,0.3,1,0.6c0.5,0.9,0.1,1.4-0.6,1.8l-1.8,1.1l-0.5-0.8l1.7-1
			c0.5-0.3,0.6-0.6,0.4-1c-0.3-0.4-0.6-0.5-1.2-0.1l-1.6,0.9l-0.5-0.8L-95,232.6z"/>
		<path d="M-94.3,237.6c-0.5,0.3-0.6,0.7-0.3,1.2c0.2,0.3,0.5,0.5,0.8,0.4l0.4,0.7c-0.8,0.2-1.4-0.1-1.8-0.8
			c-0.5-0.9-0.2-1.9,0.7-2.4s1.9-0.3,2.5,0.6c0.6,1,0,2-0.9,2.5L-94.3,237.6z M-93,238.7c0.4-0.3,0.5-0.6,0.3-1
			c-0.3-0.5-0.8-0.4-1-0.3L-93,238.7z"/>
		<path d="M-89.9,238.6l0.5,0.8l-4.1,2.4L-94,241L-89.9,238.6z"/>
	</g>
</g>
<g id="category13">
	<g>
		<path class="st0" d="M-112.8,146.1l0.5-0.2c18.5-6.7,38.1-10.2,58.3-10.3l0.5,0V309L-112.8,146.1z"/>
		<path class="st1" d="M-54,136.1v170l-58.1-159.8C-94.1,139.8-74.6,136.2-54,136.1 M-53,135.1l-1,0c-20.2,0.1-39.9,3.6-58.4,10.3
			l-0.9,0.3l0.3,0.9L-55,306.5l1.9,5.3v-5.7v-170V135.1L-53,135.1z"/>
	</g>
	<path class="st19" d="M-53.8,142.3l0.1-6.2c-20,0-39.8,3.6-58,10.2l2.1,5.7C-92.2,145.8-73.4,142.3-53.8,142.3z"/>
	<path class="st19" d="M-72.8,253.4c6-2.2,12.4-3.4,19.1-3.5v-7.7c-7.6,0.1-14.9,1.4-21.7,3.9L-72.8,253.4z"/>
	<g>
		<path d="M-68.6,192l0.3,2.1c0.2,1.2-0.5,1.7-1.3,1.8c-0.8,0.1-1.6-0.2-1.7-1.4l-0.2-1.1l-1.7,0.3l-0.2-1L-68.6,192z M-70.7,193.4
			l0.1,0.8c0.1,0.5,0.2,0.9,0.8,0.8c0.6-0.1,0.6-0.5,0.6-1l-0.1-0.8L-70.7,193.4z"/>
		<path d="M-68.9,198.1c0.2,1.1-0.4,1.9-1.5,2c-1.1,0.2-1.9-0.4-2.1-1.5c-0.2-1.1,0.5-1.9,1.5-2C-69.9,196.5-69.1,197.1-68.9,198.1z
			 M-71.8,198.6c0.1,0.6,0.7,0.7,1.2,0.7c0.5-0.1,1.1-0.4,1-1c-0.1-0.6-0.7-0.7-1.2-0.7C-71.4,197.7-71.9,197.9-71.8,198.6z"/>
		<path d="M-68.7,200.5l0.1,0.9l-3.4,0.5l-0.1-0.9L-68.7,200.5z M-68,201.4l-0.1-0.9l0.8-0.1l0.1,0.9L-68,201.4z"/>
		<path d="M-68.4,202.2l0.1,0.9l-0.5,0.1l0,0c0.4,0.2,0.7,0.6,0.7,1c0.1,1-0.4,1.3-1.2,1.5l-2.1,0.3l-0.1-0.9l1.9-0.3
			c0.6-0.1,0.8-0.3,0.7-0.7c-0.1-0.5-0.4-0.7-1.1-0.6l-1.8,0.3l-0.1-0.9L-68.4,202.2z"/>
		<path d="M-67.7,207.3l0.1,0.7l-0.6,0.1l-0.1-0.7l-1.7,0.2c-0.3,0-0.4,0.1-0.3,0.5c0,0.1,0,0.2,0.1,0.3l-0.7,0.1
			c0-0.2-0.1-0.4-0.1-0.5c-0.1-0.6,0-1.1,0.7-1.2l2-0.3l-0.1-0.6l0.6-0.1l0.1,0.6l1-0.2l0.1,0.9L-67.7,207.3z"/>
		<path d="M-66.9,211.9c0.2,1.1-0.4,1.9-1.5,2c-1.1,0.2-1.9-0.4-2.1-1.5c-0.2-1.1,0.4-1.9,1.5-2C-67.8,210.3-67,210.8-66.9,211.9z
			 M-69.8,212.3c0.1,0.6,0.7,0.7,1.2,0.7c0.5-0.1,1.1-0.4,1-1s-0.7-0.7-1.2-0.7C-69.3,211.4-69.9,211.7-69.8,212.3z"/>
		<path d="M-67.2,214.6l-0.1-0.6l0.6-0.1l0.1,0.6h0.3c0.6-0.1,1.1,0.2,1.2,1c0,0.2,0,0.3,0,0.5l-0.7,0.1c0-0.1,0-0.2,0-0.3
			c0-0.2-0.2-0.3-0.4-0.3h-0.2l0.1,0.6l-0.6,0.1l-0.1-0.6l-2.8,0.4l-0.1-0.9L-67.2,214.6z"/>
		<path d="M-67.7,219.4c-0.6,0.1-0.8,0.6-0.7,1.2c0.1,0.4,0.2,0.9,0.7,0.8s0.5-0.8,0.6-1.5s0.2-1.5,1.1-1.6c1-0.1,1.6,0.7,1.7,1.5
			c0.1,1-0.1,1.9-1.2,2.1l-0.1-1c0.6-0.1,0.6-0.5,0.6-1c0-0.3-0.2-0.7-0.6-0.6c-0.4,0.1-0.4,0.3-0.5,1.5c0,0.4-0.1,1.4-1.2,1.6
			c-0.9,0.1-1.6-0.5-1.8-1.7c-0.2-1,0.2-2.1,1.4-2.2V219.4z"/>
		<path d="M-66.4,222.7c0.9-0.1,1.3,0.7,1.4,1.4c0.1,0.7,0.1,1.5-0.7,1.6l-1.8,0.3c-0.3,0-0.6,0.1-0.7,0.2l-0.1-0.9
			c0.1,0,0.2-0.1,0.3-0.1c-0.4-0.2-0.5-0.7-0.6-1.1c-0.1-0.6,0.2-1.2,0.8-1.3c0.8-0.1,1,0.4,1.2,1s0.2,1.1,0.6,1
			c0.4-0.1,0.4-0.3,0.4-0.7c-0.1-0.4-0.2-0.6-0.6-0.5L-66.4,222.7z M-66.8,225c-0.2-0.1-0.2-0.5-0.3-0.7c-0.1-0.3-0.2-0.5-0.6-0.5
			c-0.3,0.1-0.4,0.3-0.3,0.6c0.1,0.7,0.7,0.7,0.9,0.6H-66.8z"/>
		<path d="M-63.5,226.2l0.1,0.9l-4.7,0.7l-0.1-0.9L-63.5,226.2z"/>
		<path d="M-66.4,229.1c-0.6,0.1-0.8,0.4-0.7,1c0.1,0.4,0.3,0.6,0.6,0.7l0.1,0.8c-0.8-0.1-1.3-0.7-1.4-1.4c-0.2-1.1,0.5-1.8,1.5-2
			c1-0.2,1.9,0.4,2.1,1.5c0.2,1.2-0.7,1.9-1.8,2L-66.4,229.1z M-65.6,230.6c0.5-0.2,0.7-0.4,0.6-0.9c-0.1-0.6-0.6-0.7-0.8-0.7
			L-65.6,230.6z"/>
	</g>
</g>
<g id="all">
	<circle class="st1" cx="-53.1" cy="308" r="58.6"/>
	<g>
		<path class="st20" d="M-29.1,329c-1.6,0-1.6,2.4-1.6,3.4c0,1.1,0,3.5,1.6,3.5c1.6,0,1.6-2.4,1.6-3.5
			C-27.5,331.4-27.5,329-29.1,329z"/>
		<path class="st20" d="M-38.7,315.1c5.8,0,5.8-8.6,5.8-12.6c0-3.7,0-12.3-5.8-12.3c-5.7,0-5.7,8.6-5.7,12.3
			C-44.5,306.5-44.5,315.1-38.7,315.1z"/>
		<path class="st20" d="M-15.6,306.9h-1v0.1c0.3,0.4,0.3,1.2,0.4,1.8c0.1,0.7,0.4,1.2,1.1,1.2c0.7,0,0.9-0.6,0.9-1.2
			C-14.2,307.5-15,306.9-15.6,306.9z"/>
		<path class="st20" d="M-18.8,295.9c0,1.1,0.8,1.7,1.8,1.8v-3.6C-18,294.1-18.8,294.9-18.8,295.9z"/>
		<path class="st20" d="M-84.3,334.1c-0.8,0.1-1.4,0.4-1.4,1.3c0,0.8,0.7,1.1,1.4,1.1c1.6,0,2.2-1,2.2-1.6v-1.3h-0.1
			C-82.7,333.9-83.5,333.9-84.3,334.1z"/>
		<path class="st20" d="M-56.1,329.1h-2.4v2.8h2.4c1,0,1.5-0.4,1.5-1.4S-55.1,329.1-56.1,329.1z"/>
		<path class="st20" d="M-71.3,277.5c1.3,0,1.8-1.1,1.8-2.3c-0.1-1.2-0.7-2.3-1.9-2.3c-1.3,0-1.8,1.1-1.8,2.3
			S-72.7,277.5-71.3,277.5z"/>
		<path class="st20" d="M-16.5,315.7c-1.2,0.1-2.3,0.7-2.3,2c0,1.4,1.2,1.9,2.3,1.9c1.2,0,2.4-0.6,2.4-2
			C-14.1,316.2-15.3,315.7-16.5,315.7z"/>
		<path class="st20" d="M-78.3,277.4c1,0,1.9-0.8,1.9-2.3s-0.8-2.3-1.9-2.3s-1.9,0.8-1.9,2.3S-79.3,277.4-78.3,277.4z"/>
		<path class="st20" d="M-14.9,332.3c-1.1,0-1.6,0.8-1.6,1.8c0,0.9,0.6,1.8,1.6,1.8c0.9,0,1.5-0.9,1.5-1.8
			C-13.4,333.2-13.9,332.3-14.9,332.3z"/>
		<path d="M-84.2,276.9c0,1.1,0.4,1.3,1.4,1.3h0.8v-0.9h-0.5c-0.6,0-0.7,0-0.7-0.5v-3.7h1.2v-0.9h-1.2v-1.8h-1v1.8h-1v0.9h1V276.9z"
			/>
		<path d="M-78.3,278.2c1.9,0,2.9-1.3,2.9-3.1c0-1.7-1-3.1-2.9-3.1c-1.9,0-2.9,1.4-2.9,3.1C-81.2,276.8-80.2,278.2-78.3,278.2z
			 M-78.3,272.8c1.1,0,1.9,0.8,1.9,2.3s-0.9,2.3-1.9,2.3s-1.9-0.8-1.9-2.3S-79.4,272.8-78.3,272.8z"/>
		<line class="st21" x1="-74.2" y1="272.2" x2="-74.1" y2="272.2"/>
		<path d="M-73.1,280.5v-3.1c0.4,0.7,1.3,0.9,1.9,0.9c1.8,0,2.7-1.4,2.7-3.1s-1-3.2-2.8-3.2c-0.8,0-1.6,0.3-1.9,1v-0.8h-0.9v8.3
			H-73.1z M-71.4,272.9c1.2,0,1.8,1.1,1.9,2.3c0,1.2-0.5,2.3-1.8,2.3c-1.4,0-1.9-1.1-1.9-2.3S-72.7,272.9-71.4,272.9z"/>
		<path d="M-80.3,336.4c-0.2,0.1-0.3,0.1-0.4,0.1c-0.4,0-0.4-0.2-0.4-0.8V332c0-1.7-1.4-2-2.7-2c-1.6,0-2.9,0.6-3,2.4h1.2
			c0.1-1.1,0.8-1.4,1.8-1.4c0.8,0,1.6,0.2,1.6,1.2c0,0.9-1.1,0.9-2.4,1.1c-1.2,0.2-2.4,0.6-2.4,2.2c0,1.4,1.1,2,2.4,2
			c1,0,1.8-0.3,2.5-1.1c0,0.8,0.4,1.1,1,1.1c0.3,0,0.6-0.1,0.8-0.2h0V336.4z M-82.1,334.9c0,0.6-0.6,1.6-2.2,1.6
			c-0.7,0-1.4-0.3-1.4-1.1c0-0.9,0.6-1.2,1.4-1.3c0.8-0.2,1.6-0.2,2.1-0.5h0.1V334.9z"/>
		<path d="M-77.5,327.9h-1.2v2.1h-1.2v1h1.2v4.6c0,1.4,0.5,1.6,1.7,1.6h0.9v-1h-0.5c-0.7,0-0.9-0.1-0.9-0.6v-4.4h1.4v-1h-1.4V327.9z
			"/>
		<polygon points="-64.6,334 -68.7,327.4 -70.9,327.4 -70.9,337.3 -68.9,337.3 -68.9,330.7 -64.8,337.3 -62.6,337.3 -62.6,327.4 
			-64.6,327.4 		"/>
		<path d="M-54,332.6c1.1-0.5,1.6-1.3,1.6-2.5c0-1.5-1.1-2.7-2.9-2.7h-5.3h-0.1v9.8h2.2v-3.9h2.2c1,0,1.4,0.5,1.6,1.5
			c0.1,0.8,0,1.8,0.3,2.4h2.2c-0.4-0.5-0.4-1.7-0.4-2.3C-52.6,333.9-52.9,332.9-54,332.6z M-56.1,331.9h-2.4v-2.8h2.4
			c1,0,1.5,0.4,1.5,1.4S-55.1,331.9-56.1,331.9z"/>
		<polygon points="-50.6,337.3 -48.4,337.3 -48.4,333.2 -44.3,333.2 -44.3,331.5 -48.4,331.5 -48.4,329.2 -43.6,329.2 -43.6,327.4 
			-50.6,327.4 		"/>
		<path d="M-35,333.3c0.9-0.6,1.7-1.4,1.7-2.9c0-1.9-1.5-3-3.3-3c-2.3,0-3.6,1.7-3.5,3.8h1.9c0-1,0.3-2.2,1.5-2.2
			c0.9,0,1.5,0.6,1.5,1.5c0,1.2-1.1,1.8-2,2.4c-1.7,1.1-3.1,2.1-3.1,4.3h7.1v-1.7h-4.6C-37.1,334.5-35.9,333.9-35,333.3z"/>
		<path d="M-40.1,331.3C-40.1,331.3-40.1,331.2-40.1,331.3L-40.1,331.3L-40.1,331.3z"/>
		<path d="M-29.1,327.4c-1.9,0-3.5,1.2-3.5,5c0,3.9,1.6,5.1,3.5,5.1c2,0,3.6-1.2,3.6-5.1C-25.5,328.6-27.2,327.4-29.1,327.4z
			 M-29.1,335.9c-1.6,0-1.6-2.4-1.6-3.5c0-1,0-3.4,1.6-3.4c1.6,0,1.6,2.4,1.6,3.4C-27.5,333.5-27.5,335.9-29.1,335.9z"/>
		<path d="M-24.5,329.5v1.5h2.4v6.3h2v-9.7h-1.6C-21.9,329.1-23.1,329.5-24.5,329.5z"/>
		<path d="M-14.5,330.8c-1,0-1.7,0.3-2.2,1.1c0.1-1.1,0.5-3,1.9-3c0.7,0,1.2,0.5,1.3,1.2h1.7c-0.2-1.7-1.4-2.7-3.1-2.7
			c-2.7,0-3.8,2.7-3.8,5.1c0,2.4,0.8,5,3.7,5c2,0,3.4-1.5,3.4-3.5c0-0.8-0.2-1.6-0.7-2.2C-12.8,331.2-13.7,330.8-14.5,330.8z
			 M-14.9,335.9c-1,0-1.6-0.9-1.6-1.8c0-1,0.5-1.8,1.6-1.8c1,0,1.5,0.9,1.5,1.8C-13.4,335-14,335.9-14.9,335.9z"/>
		<line class="st21" x1="-79.9" y1="320.3" x2="-80" y2="320.3"/>
		<path d="M-85.7,285c-0.7,5.4-5.3,7.1-10.3,7v5.4h8.9v22.9h7.1V285H-85.7z"/>
		<path d="M-77.8,298.6C-77.8,298.6-77.8,298.5-77.8,298.6L-77.8,298.6L-77.8,298.6z"/>
		<path d="M-77.8,298.5h6.8c0-3.7,1.4-8.1,5.6-8.1c3.1,0,5.3,2.1,5.3,5.4c0,4.3-4.3,6.5-7.4,8.6c-6.1,4.2-11.1,7.6-11.1,15.8h25.9
			v-6.1h-16.7c2.6-3.6,6.7-5.6,10.2-8.1s6.3-5.4,6.3-10.7c0-6.9-5.7-11-12.1-11C-73.5,284.3-78.1,290.4-77.8,298.5z"/>
		<path d="M-38.7,321c7.1,0,13-4.4,13-18.5c0-13.8-5.9-18.2-13-18.2c-7,0-12.9,4.4-12.9,18.2C-51.6,316.6-45.7,321-38.7,321z
			 M-44.4,302.5c0-3.7,0-12.3,5.7-12.3c5.8,0,5.8,8.6,5.8,12.3c0,4,0,12.6-5.8,12.6C-44.5,315.1-44.5,306.5-44.4,302.5z"/>
		<line class="st21" x1="-19.6" y1="320.5" x2="-19.6" y2="320.6"/>
		<path d="M-13.3,317.5c0-1.9-1.4-2.8-3.2-2.8s-3.3,1-3.3,2.9c0,0.9,0.3,1.7,1,2h-0.8v0.9h8.5v-1h-3.2
			C-13.5,319-13.3,318.1-13.3,317.5z M-16.5,319.6c-1.1,0-2.3-0.5-2.3-1.9c0-1.3,1.1-1.9,2.3-2c1.2,0,2.4,0.5,2.4,1.9
			C-14.1,319-15.3,319.6-16.5,319.6z"/>
		<rect x="-21.9" y="312.4" width="8.6" height="1"/>
		<path d="M-14.7,306h-3.2c-1.4,0-1.7,1.2-1.7,2.3c0,1.4,0.6,2.5,2.1,2.6v-1c-0.9,0-1.2-0.6-1.2-1.5c0-0.7,0.1-1.4,1-1.4
			c0.8,0,0.7,1,0.9,2.1c0.2,1.1,0.5,2.1,1.9,2.1c1.2,0,1.7-1,1.7-2.1c0-0.9-0.3-1.6-1-2.2c0.7,0,1-0.4,1-0.9c0-0.3-0.1-0.5-0.2-0.7
			v0.1h-0.7c0.1,0.1,0.1,0.2,0.1,0.3C-14,306-14.2,306-14.7,306z M-15.1,310c-0.7,0-1-0.5-1.1-1.2c-0.1-0.6-0.1-1.4-0.4-1.8v-0.1h1
			c0.6,0,1.4,0.6,1.4,1.9C-14.2,309.4-14.4,310-15.1,310z"/>
		<path d="M-12.5,302l-7.1-2.6v1.1l5.1,1.7l-5.1,1.8v1.2l6.2-2.5l1.1,0.4c0.4,0.2,0.6,0.4,0.6,0.8c0,0.2,0,0.4-0.1,0.6h0.9
			c0.1-0.2,0.1-0.5,0.1-0.7C-10.8,302.9-11.3,302.5-12.5,302z"/>
		<path d="M-19.7,295.9c0,1.7,1.3,2.9,3.2,2.9c1.9-0.1,3.3-1,3.3-3c0-1.4-0.7-2.4-2.1-2.7v1.1c0.8,0.2,1.2,0.8,1.2,1.6
			c0,1.3-0.9,1.9-2,1.9v-4.6C-17.6,293-19.7,293.7-19.7,295.9z M-17,297.7c-1-0.1-1.8-0.7-1.8-1.8c0-1,0.8-1.8,1.8-1.8V297.7z"/>
		<line class="st21" x1="-19.6" y1="291.9" x2="-19.6" y2="292"/>
		<path d="M-18.3,291h-1.3v0.9h6.2v-1h-2.8c-1.6,0-2.5-0.6-2.5-2.2h-1.1C-19.8,289.8-19.3,290.5-18.3,291z"/>
		<path d="M-18,288.1c1.2,0,1.6-1,1.8-2c0.3-1,0.4-2,1.2-2s0.9,0.9,0.9,1.5c0,0.9-0.3,1.7-1.2,1.7v0.9c1.5,0,2.1-1.2,2.1-2.6
			c0-1.2-0.5-2.6-2-2.6c-1.2,0-1.6,1-1.8,2c-0.2,0.9-0.4,2-1.1,2c-0.6,0-0.8-0.7-0.8-1.3c0-0.6,0.2-1.3,1-1.4v-1
			c-1.5,0-1.9,1.1-1.9,2.5C-19.8,286.9-19.2,288.1-18,288.1z"/>
	</g>
</g>
</svg>
